<!-- Generated by IcoMoon.io -->
<svg version="1.1" xmlns="http://www.w3.org/2000/svg" width="91" height="32" viewBox="0 0 91 32">
<title>logo</title>
<path fill="#111518" d="M13.608 4.836v12.942h-3.661v-5.047h-4.992v5.047h-3.661v-12.942h3.661v4.863h4.992v-4.863h3.661zM27.006 12.786c0 0.025-0.018 0.314-0.055 0.869h-7.285c0.148 0.518 0.432 0.918 0.851 1.202 0.432 0.271 0.967 0.407 1.609 0.407 0.481 0 0.894-0.068 1.239-0.203 0.358-0.135 0.715-0.358 1.072-0.666l1.849 1.923c-0.974 1.084-2.397 1.627-4.271 1.627-1.171 0-2.2-0.222-3.088-0.666s-1.577-1.060-2.071-1.849c-0.481-0.789-0.721-1.683-0.721-2.681 0-0.986 0.235-1.867 0.703-2.644 0.483-0.786 1.154-1.415 1.951-1.836l0.027-0.013c0.838-0.444 1.781-0.666 2.829-0.666 0.998 0 1.904 0.21 2.718 0.629 0.811 0.406 1.466 1.020 1.911 1.772l0.012 0.021c0.481 0.777 0.721 1.701 0.721 2.773zM21.663 10.086c-0.542 0-0.998 0.154-1.368 0.462-0.357 0.308-0.585 0.727-0.684 1.257h4.105c-0.098-0.53-0.333-0.949-0.703-1.257-0.357-0.308-0.807-0.462-1.35-0.462zM29.365 4.059h3.513v13.719h-3.513v-13.719zM35.9 4.059h3.513v13.719h-3.513v-13.719z"></path>
<path fill="#ff6b09" d="M4.614 29.724h-1.849l-0.353 0.853h-0.944l1.775-3.982h0.91l1.781 3.982h-0.967l-0.353-0.853zM4.324 29.025l-0.631-1.525-0.631 1.525h1.263zM11.627 29.827v1.576h-0.853v-0.825h-2.811v0.825h-0.853l0.006-1.576h0.159c0.24-0.007 0.408-0.182 0.507-0.523s0.159-0.828 0.181-1.462l0.046-1.246h3.060v3.231h0.557zM8.776 27.927c-0.012 0.432-0.055 0.843-0.126 1.245l0.007-0.051c-0.061 0.319-0.154 0.554-0.279 0.705h1.781v-2.48h-1.365l-0.017 0.58zM15.154 30.646c-0.405 0-0.774-0.087-1.104-0.262-0.322-0.175-0.583-0.424-0.769-0.725l-0.005-0.009c-0.175-0.296-0.279-0.653-0.279-1.033 0-0.011 0-0.021 0-0.032l-0 0.002c0-0.395 0.092-0.747 0.279-1.058 0.19-0.315 0.448-0.56 0.774-0.734 0.33-0.178 0.7-0.267 1.109-0.267 0.345 0 0.656 0.060 0.933 0.182 0.281 0.121 0.516 0.296 0.705 0.523l-0.592 0.546c-0.27-0.311-0.603-0.466-1.001-0.466-0.247 0-0.466 0.055-0.66 0.165-0.192 0.106-0.347 0.259-0.452 0.444l-0.003 0.006c-0.107 0.193-0.159 0.413-0.159 0.66s0.053 0.466 0.159 0.66c0.11 0.193 0.262 0.345 0.455 0.455 0.193 0.107 0.413 0.159 0.66 0.159 0.398 0 0.732-0.157 1.001-0.472l0.592 0.546c-0.187 0.227-0.424 0.407-0.694 0.524l-0.012 0.005c-0.281 0.121-0.594 0.182-0.939 0.182zM19.964 28.974h-0.637v1.604h-0.917v-3.982h0.916v1.61h0.66l1.047-1.61h0.973l-1.303 1.923 1.343 2.059h-1.047l-1.035-1.604zM23.502 26.596h0.916v2.594l1.9-2.594h0.865v3.982h-0.91v-2.588l-1.9 2.588h-0.87v-3.982zM29.198 26.596h0.916v2.594l1.9-2.594h0.865v3.982h-0.91v-2.588l-1.9 2.588h-0.87v-3.982zM31.036 26.34c-0.728 0-1.096-0.29-1.104-0.87h0.631c0.007 0.277 0.165 0.415 0.472 0.415 0.151 0 0.267-0.034 0.347-0.102 0.080-0.072 0.121-0.176 0.125-0.313h0.631c-0.004 0.284-0.097 0.501-0.279 0.649s-0.457 0.222-0.825 0.222z"></path>
<path fill="#111518" d="M40.226 29.724h-1.849l-0.353 0.853h-0.944l1.775-3.982h0.91l1.781 3.982h-0.967l-0.353-0.853zM39.936 29.025l-0.631-1.525-0.631 1.525h1.263zM46.751 26.596v3.982h-0.922v-1.633h-1.809v1.633h-0.922v-3.982h0.922v1.57h1.809v-1.57h0.922zM51.577 27.346h-1.894l0.006 3.231h-0.916v-3.982h2.81l-0.006 0.751zM56.224 26.596v3.982h-0.91v-3.231h-1.365l-0.028 0.831c-0.019 0.565-0.065 1.024-0.137 1.377-0.073 0.348-0.193 0.619-0.364 0.808-0.167 0.186-0.403 0.279-0.705 0.279-0.125 0-0.277-0.021-0.455-0.063l0.057-0.779c0.049 0.015 0.104 0.023 0.165 0.023 0.22 0 0.373-0.129 0.461-0.387 0.087-0.262 0.142-0.669 0.165-1.223l0.057-1.616h3.061zM58.242 26.596h0.916v2.594l1.9-2.594h0.865v3.982h-0.91v-2.588l-1.901 2.588h-0.87v-3.982zM63.938 26.596h0.916v2.594l1.901-2.594h0.865v3.982h-0.91v-2.588l-1.9 2.588h-0.871v-3.982zM65.776 26.34c-0.729 0-1.097-0.29-1.104-0.87h0.632c0.007 0.277 0.164 0.415 0.471 0.415 0.152 0 0.268-0.034 0.348-0.102 0.079-0.072 0.121-0.176 0.124-0.313h0.631c-0.004 0.284-0.097 0.501-0.279 0.649s-0.457 0.222-0.825 0.222zM71.518 30.646c-0.009 0-0.021 0-0.032 0-0.392 0-0.761-0.097-1.085-0.268l0.013 0.006c-0.322-0.175-0.583-0.424-0.769-0.725l-0.005-0.009c-0.175-0.296-0.279-0.653-0.279-1.033 0-0.011 0-0.021 0-0.032l-0 0.002c0-0.395 0.092-0.747 0.279-1.058 0.189-0.315 0.448-0.56 0.774-0.734 0.312-0.169 0.682-0.268 1.076-0.268 0.012 0 0.023 0 0.035 0l-0.002-0c0.345 0 0.656 0.060 0.933 0.182 0.28 0.121 0.516 0.296 0.705 0.523l-0.592 0.546c-0.269-0.311-0.603-0.466-1.001-0.466-0.247 0-0.466 0.055-0.66 0.165-0.192 0.106-0.347 0.259-0.452 0.444l-0.003 0.006c-0.107 0.193-0.159 0.413-0.159 0.66s0.053 0.466 0.159 0.66c0.11 0.193 0.262 0.345 0.455 0.455 0.193 0.107 0.413 0.159 0.66 0.159 0.398 0 0.732-0.157 1.001-0.472l0.592 0.546c-0.187 0.227-0.424 0.407-0.693 0.524l-0.012 0.005c-0.281 0.121-0.594 0.182-0.939 0.182zM76.329 28.974h-0.637v1.604h-0.916v-3.982h0.916v1.61h0.66l1.047-1.61h0.973l-1.303 1.923 1.343 2.059h-1.047l-1.035-1.604zM79.866 26.596h0.916v2.594l1.9-2.594h0.865v3.982h-0.91v-2.588l-1.9 2.588h-0.87v-3.982zM85.562 26.596h0.916v2.594l1.9-2.594h0.865v3.982h-0.91v-2.588l-1.9 2.588h-0.87v-3.982zM87.4 26.34c-0.728 0-1.096-0.29-1.104-0.87h0.631c0.008 0.277 0.165 0.415 0.472 0.415 0.151 0 0.267-0.034 0.347-0.102 0.080-0.072 0.122-0.176 0.125-0.313h0.631c-0.004 0.284-0.097 0.501-0.279 0.649s-0.457 0.222-0.825 0.222zM74.263 14.949v2.829h-10.391v-12.942h10.15v2.829h-6.527v2.182h5.75v2.736h-5.75v2.367h6.767zM89.348 4.836v12.942h-3.014l-5.713-6.896v6.896h-3.587v-12.942h3.014l5.713 6.896v-6.896h3.587z"></path>
<path fill="#ff6b09" d="M58.695 11.062c-0.19-0.424-0.45-0.841-0.832-1.323-0.961-1.209-1.254-3.904-1.258-3.93-0.015-0.13-0.103-0.235-0.222-0.274l-0.002-0.001c-0.030-0.010-0.064-0.015-0.1-0.015-0.097 0-0.185 0.042-0.245 0.109l-0 0c-1.147 1.283-0.665 3.264-0.404 4.056 0.071 0.217 0.149 0.472 0.206 0.73 0.423 2.091-0.395 3.039-0.587 3.229-0.186 0.052-0.313 0.026-0.43-0.1-0.405-0.443-0.538-1.894-0.348-3.785 0.015-0.129 0.024-0.279 0.024-0.431 0-0.22-0.018-0.435-0.054-0.645l0.003 0.023c-0.399-2.324-1.861-3.815-2.233-4.338-1.024-1.513-1.128-4.031-1.131-4.053-0.007-0.174-0.15-0.312-0.325-0.312-0.068 0-0.132 0.021-0.184 0.057l0.001-0.001c-1.708 1.161-1.562 3.957-1.323 5.518 0.055 0.362 0.163 0.73 0.348 1.196 0.661 1.664-0.13 3.814-0.137 3.833s-0.014 0.036-0.016 0.055c-0.101 0.53-0.27 0.846-0.46 0.846-0.022-0-0.043-0.004-0.063-0.010l0.002 0c-0.231-0.048-0.352-0.294-0.356-0.507-0.013-2.758-2.78-3.685-2.809-3.695s-0.064-0.016-0.1-0.016c-0.098 0-0.186 0.043-0.245 0.112l-0 0c-0.050 0.056-0.080 0.13-0.080 0.211 0 0.053 0.013 0.102 0.036 0.146l-0.001-0.002c0.033 0.068 0.137 0.365 0.065 1.416-0.068 1.014-0.25 1.959-0.535 2.859l0.023-0.085c-0.658 2.147-0.555 4.18-0.548 4.277 0.506 5.505 8.423 6.47 13.122 3.368 0.515-0.339 0.935-0.727 1.244-1.153 1.734-2.392 0.714-5.641-0.045-7.367zM46.651 16.32c0 0.005 0 0.011 0 0.017 0 0.173-0.136 0.314-0.306 0.322l-0.001 0h-0.020c-0.001 0-0.001 0-0.002 0-0.172 0-0.312-0.134-0.324-0.303l-0-0.001c-0.029-0.472-0.023-0.967 0.014-1.503 0.015-0.169 0.156-0.301 0.328-0.301 0.007 0 0.014 0 0.021 0.001l-0.001-0c0.17 0.012 0.304 0.153 0.304 0.325 0 0.007-0 0.014-0.001 0.022l0-0.001c-0.036 0.511-0.043 0.976-0.013 1.422zM46.81 13.456c-0.020 0.161-0.156 0.284-0.321 0.284-0 0-0.001 0-0.001 0h0c-0.014 0-0.026 0-0.043-0.004-0.162-0.021-0.286-0.157-0.286-0.323 0-0.012 0.001-0.025 0.002-0.037l-0 0.001 0.156-1.248c0.023-0.161 0.16-0.283 0.325-0.283 0.014 0 0.028 0.001 0.042 0.003l-0.002-0c0.179 0.023 0.306 0.184 0.283 0.362l-0.156 1.244zM56.489 4.422c-0.157-0.024-0.276-0.158-0.276-0.32 0-0.017 0.001-0.034 0.004-0.050l-0 0.002c0.021-0.132 0.139-0.804 0.458-1.142 0.060-0.063 0.144-0.102 0.238-0.102 0.086 0 0.165 0.034 0.223 0.088l-0-0c0.132 0.122 0.138 0.326 0.014 0.457-0.135 0.143-0.25 0.553-0.289 0.798-0.026 0.156-0.16 0.274-0.322 0.274-0.018 0-0.035-0.001-0.052-0.004l0.002 0zM44.608 6.032c-0.063-0.24-0.218-0.637-0.366-0.767-0.068-0.059-0.111-0.146-0.111-0.243 0-0.082 0.031-0.156 0.081-0.213l-0 0c0.060-0.068 0.148-0.11 0.245-0.11 0.083 0 0.158 0.031 0.215 0.081l-0-0c0.351 0.305 0.535 0.963 0.567 1.092 0.006 0.024 0.010 0.052 0.010 0.080 0 0.151-0.103 0.277-0.242 0.313l-0.002 0c-0.024 0.006-0.052 0.010-0.081 0.010-0.151 0-0.277-0.102-0.316-0.24l-0.001-0.002z"></path>
</svg>
