<!-- Generated by IcoMoon.io -->
<svg version="1.1" xmlns="http://www.w3.org/2000/svg" width="44" height="32" viewBox="0 0 44 32">
<title>open-book</title>
<path fill="#ff6b09" d="M19.6 4.608h-13.64v1.021h13.64v-1.021z"></path>
<path fill="#ff6b09" d="M19.6 8.416h-11.597v1.021h11.597v-1.021z"></path>
<path fill="#ff6b09" d="M19.6 12.224h-13.64v1.021h13.64v-1.021z"></path>
<path fill="#ff6b09" d="M19.6 16.032h-11.597v1.021h11.597v-1.021z"></path>
<path fill="#ff6b09" d="M19.6 19.84h-13.64v1.021h13.64v-1.021z"></path>
<path fill="#ff6b09" d="M19.6 23.648h-11.597v1.021h11.597v-1.021z"></path>
<path fill="#ff6b09" d="M38.323 4.608h-13.64v1.021h13.64v-1.021z"></path>
<path fill="#ff6b09" d="M36.281 8.416h-11.597v1.021h11.597v-1.021z"></path>
<path fill="#ff6b09" d="M38.323 12.224h-13.64v1.021h13.64v-1.021z"></path>
<path fill="#ff6b09" d="M36.281 16.032h-11.597v1.021h11.597v-1.021z"></path>
<path fill="#ff6b09" d="M38.323 19.84h-13.64v1.021h13.64v-1.021z"></path>
<path fill="#ff6b09" d="M36.281 23.648h-11.597v1.021h11.597v-1.021z"></path>
<path fill="#ff6b09" d="M43.248 3.445h-1.872v-2.812c0-0.282-0.229-0.511-0.511-0.511h-15.265c-1.49 0-2.781 0.805-3.458 2.011-0.678-1.206-1.97-2.011-3.459-2.011h-15.265c-0.282 0-0.511 0.229-0.511 0.511v2.812h-1.872c-0.282 0-0.511 0.229-0.511 0.511v27.411c0 0.282 0.229 0.511 0.511 0.511 5.127 0 37.068 0 42.213 0 0.282 0 0.511-0.229 0.511-0.511v-27.411c0-0.282-0.229-0.511-0.511-0.511zM25.601 1.144h14.754c0 4.573 0 16.619 0 27.35h-15.843c-0.702 0-1.405 0.296-1.859 0.68v-25.089c0-1.63 1.305-2.942 2.948-2.942zM3.929 1.144h14.754c1.597 0 2.889 1.243 2.942 2.829 0.001 0.022 0.003 0.091 0.006 0.112v25.087c-0.453-0.383-1.148-0.678-1.852-0.678h-15.85c0-10.728 0-22.779 0-27.35zM1.546 4.467h1.362v24.538c0 0.282 0.229 0.511 0.511 0.511h16.361c0.778 0 1.531 0.511 1.771 1.341h-20.005v-26.39zM42.738 30.856h-20.004c0.242-0.834 0.987-1.341 1.778-1.341h16.354c0.282 0 0.511-0.229 0.511-0.511v-24.538h1.362v26.39z"></path>
</svg>
