<svg aria-hidden="true" style="position:absolute;width:0;height:0" xmlns="http://www.w3.org/2000/svg" overflow="hidden"><defs><symbol id="icon-instagram-1" viewBox="0 0 32 32"><path fill="var(--color1, #000)" d="M31.452 5.724A5.827 5.827 0 0 0 26.276.548a96.718 96.718 0 0 0-20.553 0A5.827 5.827 0 0 0 .547 5.724a96.718 96.718 0 0 0 0 20.553 5.827 5.827 0 0 0 5.176 5.176c6.844.73 13.709.73 20.553 0a5.828 5.828 0 0 0 5.176-5.176c.73-6.844.73-13.708 0-20.553z"/><path fill="var(--color1, #000)" d="M29.712 6.881a5.17 5.17 0 0 0-4.593-4.593 85.795 85.795 0 0 0-18.238 0 5.171 5.171 0 0 0-4.593 4.593 85.795 85.795 0 0 0 0 18.238 5.17 5.17 0 0 0 4.593 4.593 85.795 85.795 0 0 0 18.238 0 5.17 5.17 0 0 0 4.593-4.593 85.795 85.795 0 0 0 0-18.238z"/><path fill="var(--color1, #000)" d="M.479 25.613l.068.664a5.828 5.828 0 0 0 5.176 5.176c6.844.73 13.709.73 20.553 0a5.828 5.828 0 0 0 5.176-5.176c.024-.221.046-.442.069-.664H.48z"/><path fill="var(--color1, #000)" d="M31.452 26.276c.393-3.678.574-7.361.544-11.044l-7.314-7.314c-.914-1.043-2.249-1.694-3.817-1.751-3.225-.116-6.461-.11-9.687 0-2.679.092-4.553 1.893-5.033 4.54-.085.467-.136.941-.202 1.411v7.759c.037.252.091.502.108.755.107 1.61.769 2.989 1.828 3.922l7.443 7.443a96.755 96.755 0 0 0 10.954-.545 5.828 5.828 0 0 0 5.176-5.176z"/><path fill="var(--color1, #000)" d="M31.452 26.277a5.827 5.827 0 0 1-5.176 5.176 96.738 96.738 0 0 1-10.953.545l-7.432-7.432c.862.754 1.985 1.213 3.288 1.262 3.225.121 6.461.118 9.686.002 2.917-.105 5.028-2.264 5.119-5.181.097-3.097.097-6.202 0-9.3-.042-1.346-.514-2.53-1.297-3.426l7.31 7.31a96.729 96.729 0 0 1-.545 11.044z"/><path fill="var(--color1, #000)" d="M19.776 12.535a5.126 5.126 0 1 0-7.242 7.241l11.859 11.859c.628-.055 1.255-.116 1.883-.182a5.827 5.827 0 0 0 5.176-5.176c.067-.627.128-1.255.182-1.883L19.775 12.535zM31.938 19.447l-9.544-9.544a1.218 1.218 0 1 0-1.706 1.706l11.08 11.08c.075-1.081.132-2.162.171-3.243z"/><path fill="var(--color1, #000)" d="M5.943 12.119c.067-.471.117-.944.202-1.411.48-2.647 2.354-4.447 5.033-4.54 3.226-.111 6.461-.117 9.687 0 2.916.105 5.028 2.264 5.119 5.181.097 3.097.097 6.202 0 9.3-.091 2.917-2.202 5.076-5.119 5.181-3.225.116-6.462.119-9.687-.002-2.916-.11-4.933-2.274-5.128-5.195-.017-.253-.071-.503-.108-.755v-7.759zm10.06 11.982c1.476 0 2.954.044 4.428-.01 2.311-.086 3.733-1.465 3.787-3.774.067-2.877.067-5.758 0-8.636-.054-2.309-1.477-3.72-3.787-3.769a208.195 208.195 0 0 0-8.8 0c-2.293.048-3.719 1.431-3.781 3.714a161.406 161.406 0 0 0 0 8.746c.062 2.283 1.488 3.634 3.781 3.719 1.456.054 2.915.01 4.372.01z"/><path fill="var(--color2, #fff)" d="M5.943 12.119c.067-.471.117-.944.202-1.411.48-2.647 2.354-4.447 5.033-4.54 3.226-.111 6.461-.117 9.687 0 2.916.105 5.028 2.264 5.119 5.181.097 3.097.097 6.202 0 9.3-.091 2.917-2.202 5.076-5.119 5.181-3.225.116-6.462.119-9.687-.002-2.916-.11-4.933-2.274-5.128-5.195-.017-.253-.071-.503-.108-.755v-7.759zm10.06 11.982c1.476 0 2.954.044 4.428-.01 2.311-.086 3.733-1.465 3.787-3.774.067-2.877.067-5.758 0-8.636-.054-2.309-1.477-3.72-3.787-3.769a208.195 208.195 0 0 0-8.8 0c-2.293.048-3.719 1.431-3.781 3.714a161.406 161.406 0 0 0 0 8.746c.062 2.283 1.488 3.634 3.781 3.719 1.456.054 2.915.01 4.372.01z"/><path fill="var(--color2, #fff)" d="M16 10.875a5.126 5.126 0 1 0 0 10.252 5.126 5.126 0 0 0 0-10.252zm0 8.486a3.361 3.361 0 1 1 0-6.723 3.361 3.361 0 0 1 0 6.723zM22.644 10.641a1.22 1.22 0 1 1-2.439 0 1.22 1.22 0 0 1 2.439 0z"/></symbol><symbol id="icon-Group-5" viewBox="0 0 37 32"><path fill="var(--color3, #ff6b09)" d="M2.381 29.453h12.23a3.738 3.738 0 0 0 3.38 2.116h.772c1.465 0 2.761-.83 3.381-2.116h12.237a2.289 2.289 0 0 0 2.286-2.286V5.262a2.289 2.289 0 0 0-2.286-2.286h-1.234V1.955c0-.84-.684-1.524-1.524-1.524H5.132c-.84 0-1.524.683-1.524 1.524v1.021H2.381A2.289 2.289 0 0 0 .095 5.262v21.905a2.289 2.289 0 0 0 2.286 2.286zm29.24-4.701H19.143V7.047c2.884.377 5.121 2.845 5.121 5.831v.687l-.181-.04a.759.759 0 0 0-.908.58l-1.213 5.519c-.09.41.17.816.58.907l2.621.578a1.946 1.946 0 0 0 2.319-1.492l.702-3.192a1.954 1.954 0 0 0-1.484-2.324l-.912-.201v-1.023c0-3.827-2.917-6.986-6.644-7.37V1.956h12.48l-.001 22.796zm-7.122-9.575l1.871.412a.422.422 0 0 1 .325.508l-.702 3.191a.45.45 0 0 1-.507.331l-1.874-.413.886-4.03zM5.132 1.956h12.487v3.55c-3.731.381-6.652 3.541-6.652 7.371v1.022l-.914.202a1.935 1.935 0 0 0-1.222.854c-.28.439-.373.961-.26 1.468l.7 3.188a1.96 1.96 0 0 0 2.325 1.495l2.61-.577a.762.762 0 0 0 .58-.907l-1.213-5.519c-.043-.198-.164-.37-.334-.478s-.378-.144-.574-.102l-.174.038v-.686c0-2.988 2.24-5.458 5.128-5.832v17.706H5.132V1.953zm7.117 13.221l.887 4.029-1.863.411a.433.433 0 0 1-.512-.328l-.702-3.196a.42.42 0 0 1 .323-.506l1.867-.412zM1.619 5.262c0-.42.341-.762.762-.762h1.227v20.252c0 .84.684 1.524 1.524 1.524h26.491c.84 0 1.524-.683 1.524-1.524V4.5h1.234c.42 0 .762.342.762.762v21.905c0 .42-.342.762-.762.762H21.627a.76.76 0 0 0-.728.538 2.22 2.22 0 0 1-2.135 1.577h-.772a2.229 2.229 0 0 1-2.138-1.586.762.762 0 0 0-.725-.529H2.382a.763.763 0 0 1-.762-.762V5.262z"/></symbol><symbol id="icon-Group-4" viewBox="0 0 27 32"><path fill="var(--color3, #ff6b09)" d="M-.105 31.754H27.25c.136-3.12-.088-8.295-2.006-10.759l-.069-.088-4.191-2.104c.091-.307.136-.588.154-.795a1.449 1.449 0 0 0-.102-.692c-.691-1.655-2.155-2.525-2.959-2.896a5.158 5.158 0 0 0 .48-1.567c.456-.128.822-.489.942-.971l.489-1.987a1.329 1.329 0 0 0-.454-1.364c1.379-3.133-.931-6.087-1.057-6.243C15.975-.417 12.815.089 12.648.119c-4.561.955-6.321 4.451-5.328 8.55-.294.326-.418.78-.309 1.226l.492 1.99c.119.478.483.838.935.968.14.993.56 1.89 1.177 2.614v1.576c-6.545 3.352-2.398 1.213-7.643 3.867-.01.049-2.461 2.654-2.097 10.375l.022.472zm26.404-.991h-4.502v-1.891l2.978-6.817c1.492 2.476 1.547 7.203 1.524 8.708zm-6.144-12.84c-.174 1.996-1.268 1.393-1.944 2.93-.531-.584-.691-1.285-.548-2.035.258-1.377-.583-1.786-.375-3.233l.031-.033v-.005c.018-.02.184-.217.232-.28 1.781.776 2.639 2.221 2.604 2.656zM10.6 16.354a5.075 5.075 0 0 0 5.694.076c.114 1.138.559 1.365.401 2.203a3.5 3.5 0 0 0-.055.459l-3.066 3.456-3.919-4.419.946-.494v-1.281zm-1.233-4.229v-1.916-3.366c.477-.883 1.128-1.522 1.936-1.906 2.165 1.225 4.657 3.053 6.329 4.893-.002 2.343.007 2.35-.009 2.542l-.001.012c-.13 2.128-1.88 3.892-4.124 3.892-2.181 0-3.992-1.713-4.123-3.913a2.69 2.69 0 0 1-.008-.238zm-.611 6.482l4.816 5.43 3.234-3.644c.074.213.178.414.296.608l-3.53 4.414-5.264-6.583.447-.224zm9.862-7.278v-1.53l.368-.421c.02.775.104-.14-.368 1.951zM12.829 1.09c.196.012 2.824-.4 4.901 1.843.082.103 1.773 2.281 1.093 4.665-.233-1.061-.638-2.42-1.278-3.068l-.7.697c.632.641 1.048 2.591 1.206 3.602-2.901-3.035-6.643-4.957-6.694-4.989-.188.117-1.771.418-2.921 2.653l-.055.107v1.642l-.145.002c-.731-3.528.669-6.33 4.593-7.153zM8.132 9.262l.249 1.008v1.06l-.414-1.674c-.061-.25.124-.344.165-.394zm-.725 10.023l6.166 7.712 4.172-5.218c.454.406.672.464 1.634.959l-.325-1.101c-.082-.279.244-.728.441-.934.44-.238.806-.578 1.08-.998l3.404 1.709-3.167 7.251v2.099H6.335v-2.099l-3.169-7.25 4.242-2.129zM2.37 22.058l2.978 6.815v1.891H.846c-.023-1.504.033-6.229 1.524-8.706z"/></symbol><symbol id="icon-Group-3" viewBox="0 0 44 32"><path fill="var(--color3, #ff6b09)" d="M19.6 4.608H5.96v1.021H19.6V4.608zM19.6 8.416H8.003v1.021H19.6V8.416zM19.6 12.224H5.96v1.021H19.6v-1.021zM19.6 16.032H8.003v1.021H19.6v-1.021zM19.6 19.84H5.96v1.021H19.6V19.84zM19.6 23.648H8.003v1.021H19.6v-1.021zM38.323 4.608h-13.64v1.021h13.64V4.608zM36.281 8.416H24.684v1.021h11.597V8.416zM38.323 12.224h-13.64v1.021h13.64v-1.021zM36.281 16.032H24.684v1.021h11.597v-1.021zM38.323 19.84h-13.64v1.021h13.64V19.84zM36.281 23.648H24.684v1.021h11.597v-1.021z"/><path fill="var(--color3, #ff6b09)" d="M43.248 3.445h-1.872V.633a.511.511 0 0 0-.511-.511H25.6c-1.49 0-2.781.805-3.458 2.011A3.95 3.95 0 0 0 18.683.122H3.418a.511.511 0 0 0-.511.511v2.812H1.035a.511.511 0 0 0-.511.511v27.411c0 .282.229.511.511.511h42.213a.511.511 0 0 0 .511-.511V3.956a.511.511 0 0 0-.511-.511zM25.601 1.144h14.754v27.35H24.512a3.01 3.01 0 0 0-1.859.68V4.085a2.932 2.932 0 0 1 2.948-2.942zm-21.672 0h14.754a2.924 2.924 0 0 1 2.942 2.829c.001.022.003.091.006.112v25.087a2.987 2.987 0 0 0-1.852-.678H3.929V1.144zM1.546 4.467h1.362v24.538c0 .282.229.511.511.511H19.78c.778 0 1.531.511 1.771 1.341H1.546V4.467zm41.192 26.389H22.734a1.845 1.845 0 0 1 1.778-1.341h16.354a.511.511 0 0 0 .511-.511V4.466h1.362v26.39z"/></symbol><symbol id="icon-Group-2" viewBox="0 0 33 32"><path fill="var(--color3, #ff6b09)" d="M1.993 12.558v2.831a.5.5 0 0 0 .189.39 11.099 11.099 0 0 0 6.837 2.362c.74 0 1.482-.077 2.206-.224a12.01 12.01 0 0 0 4.89 1.032c1.707 0 3.351-.349 4.89-1.032 3.091.624 6.384-.046 9.042-2.138a.495.495 0 0 0 .189-.39v-2.831a1.2 1.2 0 0 0-.575-1.027l-3.867-2.176c.846-1.073 1.476-2.602 1.586-3.913.321-2.256-1.518-4.646-4.166-4.646a4.208 4.208 0 0 0-2.948 1.227c-.027.027-.058.049-.084.076-.024.025-.043.054-.067.08-.016.017-.029.036-.044.053C19.314.852 17.86 0 16.147 0c-.166 0-.33.011-.492.028-.01-.001-.018-.006-.028-.006-.092 0-.287.024-.391.054-.015.004-.026.015-.041.021a4.485 4.485 0 0 0-3.013 2.156A4.176 4.176 0 0 0 9.003.796c-3.908 0-5.642 4.612-2.557 8.581l-3.903 2.167a1.192 1.192 0 0 0-.553 1.014zm19.003 4.27c-.084.041-.167.085-.251.123l-.002.001a11.007 11.007 0 0 1-4.627 1.006 11.023 11.023 0 0 1-6.674-2.228v-2.87c0-.098.047-.184.102-.221l4.542-2.524c.565.48 1.287.832 2.035.832.721 0 1.499-.357 2.052-.843l4.487 2.52c.083.053.13.139.13.237v2.87c-.571.429-1.173.795-1.794 1.098zm8.158-4.446a.201.201 0 0 1 .092.176v2.587a9.986 9.986 0 0 1-6.737 1.98c.369-.23.771-.516 1.083-.76a.496.496 0 0 0 .19-.39v-3.114c0-.435-.218-.835-.61-1.087l-2.383-1.339.58-.321c.703.573 1.307.744 1.848.744.663 0 1.36-.325 1.878-.759l4.06 2.284zM23.216 1.788c1.38 0 2.593.902 3.021 2.142A3.703 3.703 0 0 1 24 2.788a.494.494 0 0 0-.788.084 3.684 3.684 0 0 1-2.548 1.76v-.003a4.786 4.786 0 0 0-.162-1.329c.563-.902 1.609-1.513 2.713-1.513zm-2.66 3.856a4.642 4.642 0 0 0 3.164-1.762 4.684 4.684 0 0 0 2.702 1.056c-.007 1.792-1.471 4.927-3.206 4.927-1.337 0-2.479-1.912-2.905-3.238a8.15 8.15 0 0 0 .245-.983zm.101 3.729l-.886.491-.895-.502c.332-.413.636-.893.896-1.413.25.526.55 1.01.884 1.425zM19.32 6.465c-.478 1.427-1.705 3.49-3.199 3.49-1.742 0-3.226-2.864-3.509-4.696.075-.019 2.43.126 4.049-2.001.822.688 1.932 1.143 3.011 1.188.013.647-.144 1.406-.352 2.018zM16.15.992c2.78 0 3.309 2.392 3.352 2.442a4.123 4.123 0 0 1-2.563-1.276.497.497 0 0 0-.789.087 4.073 4.073 0 0 1-3.58 2.022c.136-1.822 1.596-3.274 3.58-3.274zm-3.689 6.946c.257.515.563 1.006.913 1.438l-.875.487-.907-.51a7.76 7.76 0 0 0 .87-1.415zm-3.455-6.15c1.125 0 2.155.571 2.729 1.514-.029.1-.106.498-.117.548a3.675 3.675 0 0 1-1.821-1.062.496.496 0 0 0-.788.086 3.712 3.712 0 0 1-3.177 1.815c.158-1.627 1.518-2.9 3.174-2.9zm-3.13 3.89a4.711 4.711 0 0 0 3.643-1.796 4.629 4.629 0 0 0 2.055.961c.029.575.179 1.273.35 1.789-.274.84-.799 1.841-1.451 2.505l-.014.01c-.408.43-.988.719-1.444.719-1.594 0-2.841-2.508-3.14-4.188zm-2.891 6.88c0-.075.033-.139.067-.162l4.116-2.284c.247.206.304.229.353.265.484.322.928.482 1.534.482.645 0 1.232-.273 1.749-.694.029-.023.06-.045.088-.068l.587.33-2.446 1.361a1.269 1.269 0 0 0-.584 1.071v3.114c0 .152.07.296.19.39.317.249.727.539 1.083.761a10.024 10.024 0 0 1-6.737-1.98v-2.587z"/><path fill="var(--color3, #ff6b09)" d="M31.259 20.781a2.063 2.063 0 0 0-2.007-.11l-6.119 2.956a2.111 2.111 0 0 0-2.107-2.072l-3.509.001c-1.73-1.504-3.941-2.425-5.952-2.473-1.983-.047-3.763-.06-4.593-.064v-1.002H0v11.517h6.972v-1.379C8.884 29.252 13.911 32 16.297 32c.054 0 .107-.001.158-.004 4.196-.235 14.091-7.198 14.743-7.661a2.08 2.08 0 0 0 1.034-1.796c0-.719-.364-1.376-.973-1.758zM5.98 28.542H.992v-9.533H5.98v9.533zm24.707-5.058a.296.296 0 0 0-.044.028c-.102.073-10.281 7.271-14.244 7.494a2.354 2.354 0 0 1-.121.003c-2.092 0-7.194-2.753-9.307-4.001v-6.997c.827.004 2.597.017 4.569.064 1.837.044 3.876.921 5.456 2.346l.141.128 3.887-.001c.617 0 1.119.502 1.119 1.119s-.502 1.119-1.119 1.119h-7.142v.992h7.142c.684 0 1.288-.333 1.674-.839l6.984-3.373c.343-.167.725-.146 1.049.057s.508.537.508.918c0 .391-.212.753-.553.945zM16.612 12.158h-.992v.92h.992v-.92zM16.612 13.992h-.992v.92h.992v-.92zM16.612 15.826h-.992v.92h.992v-.92z"/></symbol><symbol id="icon-Group-1" viewBox="0 0 33 32"><path fill="var(--color3, #ff6b09)" d="M30.175-.128H14.429a1.861 1.861 0 0 0-1.859 1.859v6.518L.872 13.159a.38.38 0 0 0-.049.678l1.492.893v9.515A1.719 1.719 0 0 0 .98 25.919v.917c0 .21.171.381.381.381h2.671c.21 0 .381-.171.381-.381v-.917a1.72 1.72 0 0 0-1.336-1.673v-9.06l1.18.706c-.036.272-.005-.474-.017 4.43 0 1.612 4.129 2.476 8.33 2.525v7.425a1.858 1.858 0 0 0 1.858 1.856h15.746a1.859 1.859 0 0 0 1.857-1.857c0 .051-.002-1.573 0-28.54a1.87 1.87 0 0 0-1.856-1.859zM3.652 25.918v.536H1.743v-.536a.955.955 0 1 1 1.909 0zm26.523 5.446H14.429a1.096 1.096 0 0 1-1.096-1.094v-2.574h17.935v2.575c0 .597-.497 1.092-1.092 1.092zm1.092-4.429H13.332v-4.086c2.051-.023 8.335-.475 8.335-2.527-.002-3.081.005-4.33-.01-4.436l3.421-2.049a.382.382 0 0 0-.049-.678l-11.698-4.91V5.067h17.935v21.868zm-18.316-9.143c-2.113 0-6.182.273-7.949 1.427.011-3.53-.122-3.3.312-3.6 1.098-.809 4.238-1.373 7.637-1.373 1.482 0 7.954.408 7.954 1.778v3.195c-1.784-1.165-5.832-1.428-7.954-1.428zm.382-16.061c0-.604.491-1.095 1.095-1.095h15.746c.604 0 1.093.498 1.093 1.095v2.574H13.332V1.731zm-.382 7.184l11.09 4.655-2.748 1.644c-1.461-1.449-6.294-1.73-8.342-1.73-2.051 0-6.884.282-8.342 1.73L1.86 13.569l11.091-4.655zM5.002 20.321c0-.617 2.73-1.767 7.949-1.767 5.222 0 7.954 1.151 7.954 1.767s-2.732 1.768-7.954 1.768c-5.219 0-7.949-1.151-7.949-1.768z"/><path fill="var(--color3, #ff6b09)" d="M22.301 28.271a1.261 1.261 0 0 0 0 2.52 1.261 1.261 0 0 0 0-2.52zm0 1.759a.499.499 0 1 1 .002-.998.499.499 0 0 1-.002.998zM23.754 2.09h-2.906v.762h2.906V2.09z"/></symbol><symbol id="icon-Group" viewBox="0 0 31 32"><path fill="var(--color3, #ff6b09)" d="M30.151 4.961l-.001-.002a.32.32 0 0 0-.06-.09L25.284.063a.258.258 0 0 0-.041-.033l-.009-.006c-.012-.007-.024-.014-.036-.019L25.187 0a.277.277 0 0 0-.099-.02H3.912a.284.284 0 0 0-.284.284v29.311c0 .019.002.037.006.056l.007.023.009.03.014.026.013.023c.01.014.021.028.033.04l.003.003 2.165 2.164c.111.111.29.111.402 0l1.964-1.963 1.964 1.963c.055.056.128.083.201.083s.145-.027.201-.083l1.963-1.963 1.965 1.963a.284.284 0 0 0 .402 0l1.963-1.963 1.963 1.963a.283.283 0 0 0 .401 0l1.965-1.963 1.964 1.963c.055.056.128.083.201.083s.145-.027.201-.083l1.963-1.963 1.965 1.963a.283.283 0 0 0 .401 0l2.165-2.164.011-.014.024-.029c.007-.009.011-.02.016-.03.003-.007.007-.012.009-.019.006-.013.009-.026.012-.039l.005-.013a.286.286 0 0 0 .006-.058V5.071a.296.296 0 0 0-.023-.109zM25.367.949l3.836 3.835h-3.836V.949zm4.237 28.507l-1.88 1.88-1.965-1.963a.283.283 0 0 0-.401 0l-1.963 1.963-1.964-1.963a.284.284 0 0 0-.402 0l-1.965 1.963-1.963-1.962v-.001a.284.284 0 0 0-.402 0l-1.963 1.963-1.965-1.963a.284.284 0 0 0-.402 0l-1.963 1.963-1.964-1.963a.284.284 0 0 0-.402 0l-1.965 1.963-1.88-1.88V.547h20.603v4.522c0 .157.127.284.284.284h4.521v24.103z"/><path fill="var(--color3, #ff6b09)" d="M6.314 3.234h9.303a.284.284 0 1 0 0-.568H6.314a.284.284 0 1 0 0 .568zM6.314 4.991h14.919a.284.284 0 1 0 0-.568H6.314a.284.284 0 1 0 0 .568zM6.03 6.568v9.199c0 .157.127.284.284.284h21.172a.284.284 0 0 0 .284-.284V6.568a.284.284 0 0 0-.284-.284H6.314a.284.284 0 0 0-.284.284zm6.278.284h14.893v2.445H12.308V6.852zm0 3.013h14.893v2.444H12.308V9.865zm0 3.012h14.893v2.605H12.308v-2.605zm-5.71-6.025h5.142v2.445H6.598V6.852zm0 3.013h5.142v2.444H6.598V9.865zm0 3.012h5.142v2.605H6.598v-2.605zM27.486 17.329H6.314a.284.284 0 0 0-.284.284v9.198a.284.284 0 1 0 .568 0v-2.889h5.142v2.889a.284.284 0 1 0 .568 0v-2.889h14.893v2.889a.284.284 0 1 0 .568 0v-9.198a.282.282 0 0 0-.283-.284zM11.74 23.354H6.598v-2.443h5.142v2.443zm0-3.012H6.598v-2.444h5.142v2.444zm15.461 3.012H12.308v-2.443h14.893v2.443zm0-3.012H12.308v-2.444h14.893v2.444zM2.281-.021a.284.284 0 0 0-.284.284v29.311a.284.284 0 1 0 .568 0V.263a.284.284 0 0 0-.284-.284zM.718-.021a.284.284 0 0 0-.284.284v29.311a.284.284 0 1 0 .568 0V.263a.284.284 0 0 0-.284-.284z"/></symbol><symbol id="icon-noun_study-program_1561455-1" viewBox="0 0 31 32"><path fill="var(--color3, #ff6b09)" d="M30.151 4.961l-.001-.002a.32.32 0 0 0-.06-.09L25.284.063a.258.258 0 0 0-.041-.033l-.009-.006c-.012-.007-.024-.014-.036-.019L25.187 0a.277.277 0 0 0-.099-.02H3.912a.284.284 0 0 0-.284.284v29.311c0 .019.002.037.006.056l.007.023.009.03.014.026.013.023c.01.014.021.028.033.04l.003.003 2.165 2.164c.111.111.29.111.402 0l1.964-1.963 1.964 1.963c.055.056.128.083.201.083s.145-.027.201-.083l1.963-1.963 1.965 1.963a.284.284 0 0 0 .402 0l1.963-1.963 1.963 1.963a.283.283 0 0 0 .401 0l1.965-1.963 1.964 1.963c.055.056.128.083.201.083s.145-.027.201-.083l1.963-1.963 1.965 1.963a.283.283 0 0 0 .401 0l2.165-2.164.011-.014.024-.029c.007-.009.011-.02.016-.03.003-.007.007-.012.009-.019.006-.013.009-.026.012-.039l.005-.013a.286.286 0 0 0 .006-.058V5.071a.296.296 0 0 0-.023-.109zM25.367.949l3.836 3.835h-3.836V.949zm4.237 28.507l-1.88 1.88-1.965-1.963a.283.283 0 0 0-.401 0l-1.963 1.963-1.964-1.963a.284.284 0 0 0-.402 0l-1.965 1.963-1.963-1.962v-.001a.284.284 0 0 0-.402 0l-1.963 1.963-1.965-1.963a.284.284 0 0 0-.402 0l-1.963 1.963-1.964-1.963a.284.284 0 0 0-.402 0l-1.965 1.963-1.88-1.88V.547h20.603v4.522c0 .157.127.284.284.284h4.521v24.103z"/><path fill="var(--color3, #ff6b09)" d="M6.314 3.234h9.303a.284.284 0 1 0 0-.568H6.314a.284.284 0 1 0 0 .568zM6.314 4.991h14.919a.284.284 0 1 0 0-.568H6.314a.284.284 0 1 0 0 .568zM6.03 6.568v9.199c0 .157.127.284.284.284h21.172a.284.284 0 0 0 .284-.284V6.568a.284.284 0 0 0-.284-.284H6.314a.284.284 0 0 0-.284.284zm6.278.284h14.893v2.445H12.308V6.852zm0 3.013h14.893v2.444H12.308V9.865zm0 3.012h14.893v2.605H12.308v-2.605zm-5.71-6.025h5.142v2.445H6.598V6.852zm0 3.013h5.142v2.444H6.598V9.865zm0 3.012h5.142v2.605H6.598v-2.605zM27.486 17.329H6.314a.284.284 0 0 0-.284.284v9.198a.284.284 0 1 0 .568 0v-2.889h5.142v2.889a.284.284 0 1 0 .568 0v-2.889h14.893v2.889a.284.284 0 1 0 .568 0v-9.198a.282.282 0 0 0-.283-.284zM11.74 23.354H6.598v-2.443h5.142v2.443zm0-3.012H6.598v-2.444h5.142v2.444zm15.461 3.012H12.308v-2.443h14.893v2.443zm0-3.012H12.308v-2.444h14.893v2.444zM2.281-.021a.284.284 0 0 0-.284.284v29.311a.284.284 0 1 0 .568 0V.263a.284.284 0 0 0-.284-.284zM.718-.021a.284.284 0 0 0-.284.284v29.311a.284.284 0 1 0 .568 0V.263a.284.284 0 0 0-.284-.284z"/></symbol><symbol id="icon-Group-1-2" viewBox="0 0 31 32"><path fill="var(--color3, #ff6b09)" d="M7.942 14.958c0 .165-.25.165-.25 0a6.343 6.343 0 0 1 12.686.001c0 .165-.249.165-.249 0 0-2.367-3.89-2.369-3.89 0 0 .165-.256.165-.256 0 0-2.361-3.896-2.361-3.896 0 0 .165-.256.165-.256 0 0-2.357-3.888-2.373-3.888 0zm3.911-.919c.067-1.363.281-2.584.593-3.517.249-.741.563-1.304.919-1.62a6.097 6.097 0 0 0-5.323 4.949c.921-1.328 3.047-1.222 3.811.189zm4.11-.062c-.069-1.31-.277-2.482-.576-3.376-.773-2.313-1.931-2.313-2.704 0-.299.894-.506 2.066-.576 3.376.831-1.412 3.026-1.412 3.857 0zm4.064-.127a6.094 6.094 0 0 0-5.323-4.949c.358.316.671.879.919 1.62.311.933.526 2.155.593 3.517.768-1.418 2.9-1.502 3.811-.189zM13.202 17.86v-1.288c-.232.154-.415.392-.415.683 0 .283.186.47.415.605zm.25.4c-.445-.204-.913-.442-.913-1.005 0-.581.442-.872.913-1.089v2.094zM14.867 19.803v1.303c.235-.156.419-.395.419-.686 0-.286-.189-.479-.419-.617zm-.248-.401c.446.207.918.452.918 1.018 0 .582-.445.873-.918 1.089v-2.107z"/><path fill="var(--color3, #ff6b09)" d="M14.867 15.106c1.024.237 2.077 1.003 2.077 2.149 0 .981-1.658.945-1.658 0 0-.292-.184-.532-.419-.686v1.833c.948.31 2.08.865 2.08 2.018 0 1.147-1.053 1.912-2.08 2.147-.005 1.092-1.662 1.09-1.665-.001-.584-.135-1.092-.407-1.458-.768-.385-.38-.612-.858-.612-1.378 0-.966 1.656-.966 1.656 0 0 .289.183.527.415.681V19.27c-.94-.304-2.078-.876-2.078-2.018 0-1.147 1.053-1.912 2.078-2.147.005-1.092 1.662-1.09 1.665.001zm-1.415.003v.199c-.975.193-2.08.818-2.08 1.944 0 1.083 1.213 1.568 2.08 1.836v2.42c-.469-.214-.913-.503-.913-1.087 0-.638-1.159-.638-1.159 0 0 .451.201.867.539 1.199.43.425.951.627 1.533.743v.201c0 .768 1.166.768 1.166 0v-.199c.978-.195 2.078-.819 2.078-1.944 0-1.093-1.21-1.563-2.078-1.837v-2.418c.47.214.918.503.918 1.09 0 .621 1.157.647 1.157 0 0-1.125-1.099-1.75-2.075-1.945v-.201c0-.768-1.166-.768-1.166 0z"/><path fill="none" stroke="var(--color3, #ff6b09)" stroke-width=".615" d="M31.077 4.615V.307H.308v31.385h30.769v-4.308"/></symbol><symbol id="icon-Group-1-1" viewBox="0 0 31 32"><path fill="var(--color3, #ff6b09)" d="M20.406 8.558H13.29a.841.841 0 0 0-.84.84v2.946l-5.287 2.219c-.06.025-.101.082-.105.146s.027.127.083.16l.674.403v4.3a.776.776 0 0 0-.603.756v.414c0 .095.077.172.172.172h1.207a.172.172 0 0 0 .172-.172v-.414a.777.777 0 0 0-.604-.756v-4.094l.533.319c-.016.123-.002-.214-.008 2.002 0 .729 1.866 1.119 3.765 1.141v3.356a.84.84 0 0 0 .84.838h7.116a.84.84 0 0 0 .839-.839V9.397a.846.846 0 0 0-.839-.84zM8.419 20.328v.242h-.863v-.242a.432.432 0 1 1 .863 0zm11.987 2.462H13.29a.494.494 0 0 1-.496-.494v-1.163h8.105v1.164c0 .27-.225.494-.494.494zm.494-2.002h-8.105v-1.847c.927-.011 3.767-.215 3.767-1.142-.001-1.392.002-1.957-.004-2.005l1.546-.926a.171.171 0 0 0-.022-.306l-5.286-2.219v-1.438h8.105v9.883zm-8.278-4.132c-.955 0-2.794.123-3.592.645.005-1.595-.055-1.491.141-1.627.496-.365 1.915-.62 3.451-.62.67 0 3.595.184 3.595.803v1.444c-.806-.526-2.636-.645-3.595-.645zm.173-7.258c0-.273.222-.495.495-.495h7.116c.273 0 .494.225.494.495v1.163h-8.105V9.398zm-.173 3.246l5.012 2.104-1.242.743c-.66-.655-2.844-.782-3.77-.782-.927 0-3.111.127-3.77.782l-1.242-.743 5.012-2.104zM9.03 17.799c0-.279 1.234-.799 3.592-.799 2.36 0 3.595.52 3.595.799s-1.235.799-3.595.799c-2.359 0-3.592-.52-3.592-.799z"/><path fill="var(--color3, #ff6b09)" d="M16.848 21.392a.57.57 0 1 0 0 1.139.57.57 0 0 0 0-1.139zm0 .795a.225.225 0 1 1 0-.45.225.225 0 0 1 0 .45zM17.504 9.56h-1.313v.344h1.313V9.56z"/><path fill="none" stroke="var(--color3, #ff6b09)" stroke-width=".615" d="M31.077 4.615V.307H.308v31.385h30.769v-4.308"/></symbol><symbol id="icon-Group-11" viewBox="0 0 31 32"><path fill="var(--color3, #ff6b09)" d="M7.953 23.273h12.362c.061-1.41-.04-3.749-.907-4.862l-.031-.04-1.894-.951c.041-.139.061-.266.069-.359a.666.666 0 0 0-.046-.313c-.312-.748-.974-1.141-1.337-1.309.111-.223.182-.463.217-.708a.607.607 0 0 0 .426-.439l.221-.898a.607.607 0 0 0-.206-.617c.623-1.416-.421-2.751-.478-2.821-1.131-1.222-2.559-.994-2.634-.98-2.061.432-2.857 2.011-2.408 3.864a.61.61 0 0 0-.14.554l.222.899a.605.605 0 0 0 .423.437c.063.449.253.854.532 1.181v.712c-2.958 1.515-1.084.548-3.454 1.748-.005.022-1.112 1.2-.948 4.689l.01.213zm11.932-.447H17.85v-.855l1.346-3.081c.674 1.119.699 3.255.689 3.935zm-2.777-5.803c-.079.902-.573.629-.878 1.324a1.025 1.025 0 0 1-.248-.92c.117-.622-.263-.807-.169-1.461l.014-.015v-.002c.008-.009.083-.098.105-.126.805.351 1.193 1.003 1.177 1.2zm-4.318-.709a2.294 2.294 0 0 0 2.573.034c.052.514.253.617.181.995-.013.07-.021.139-.025.207l-1.386 1.562-1.771-1.997.428-.223v-.579zm-.557-1.911v-.866-1.521c.216-.399.51-.688.875-.861.979.554 2.105 1.38 2.86 2.211-.001 1.059.003 1.062-.004 1.149v.006A1.87 1.87 0 0 1 14.1 16.28a1.873 1.873 0 0 1-1.867-1.876zm-.276 2.929l2.177 2.454 1.461-1.647c.033.096.08.187.134.275l-1.595 1.995-2.379-2.975.202-.101zm4.457-3.289v-.691l.166-.191c.009.35.047-.063-.166.882zm-2.616-4.627c.088.005 1.276-.181 2.215.833.037.046.801 1.031.494 2.108-.105-.479-.288-1.093-.578-1.387l-.316.315c.286.289.474 1.171.545 1.628-1.311-1.372-3.002-2.24-3.025-2.255-.085.053-.8.189-1.32 1.199l-.025.048v.742l-.066.001c-.33-1.594.302-2.861 2.076-3.233zm-2.123 3.693l.113.456v.479l-.187-.757c-.027-.113.056-.156.074-.178zm-.328 4.529l2.787 3.485 1.885-2.358c.205.184.304.21.739.433l-.147-.497c-.037-.126.11-.329.199-.422.199-.108.364-.261.488-.451l1.538.772-1.431 3.277v.948h-6.543v-.949L9.43 18.599l1.917-.962zm-2.276 1.253l1.346 3.08v.855H8.382c-.01-.68.015-2.815.689-3.934z"/><path fill="none" stroke="var(--color3, #ff6b09)" stroke-width=".615" d="M31.077 4.615V.307H.308v31.385h30.769v-4.308"/></symbol><symbol id="icon-vk-1" viewBox="0 0 32 32"><path fill="var(--color4, #436eab)" d="M27.541 18.46c1.061 1.036 2.182 2.011 3.134 3.152.421.507.819 1.03 1.123 1.619.432.836.041 1.757-.709 1.807l-4.662-.002c-1.202.1-2.162-.384-2.968-1.206-.645-.657-1.243-1.357-1.864-2.037-.255-.278-.521-.539-.839-.746-.636-.413-1.189-.287-1.552.377-.37.675-.454 1.423-.491 2.175-.05 1.098-.382 1.386-1.484 1.437-2.357.111-4.593-.245-6.671-1.434-1.832-1.048-3.252-2.528-4.489-4.203-2.407-3.261-4.25-6.845-5.907-10.53-.373-.83-.1-1.276.816-1.291 1.521-.03 3.041-.027 4.564-.002.618.009 1.027.364 1.266.947.823 2.023 1.83 3.948 3.093 5.732.337.475.68.95 1.168 1.284.541.37.952.248 1.207-.355.161-.382.232-.793.268-1.202.121-1.407.136-2.812-.075-4.214-.13-.875-.623-1.442-1.496-1.607-.446-.084-.379-.25-.164-.505.375-.439.727-.712 1.43-.712h5.269c.829.164 1.014.536 1.127 1.371l.004 5.852c-.009.323.161 1.282.743 1.496.466.152.773-.22 1.052-.516 1.261-1.339 2.162-2.921 2.966-4.559.357-.72.664-1.469.961-2.216.22-.555.566-.828 1.191-.816l5.071.005c.15 0 .302.002.448.027.855.146 1.089.513.825 1.348-.416 1.309-1.225 2.4-2.016 3.496-.846 1.17-1.75 2.3-2.589 3.477-.77 1.075-.709 1.617.248 2.55z"/></symbol><symbol id="icon-Vector" viewBox="0 0 33 32"><path fill="var(--color3, #ff6b09)" d="M4.817.003a2.072 2.072 0 0 0-1.44.674L.693 3.627c.004-.009-.01-.007-.087.1a.627.627 0 0 0-.093.182c-1.092 3.48-.36 7.308 1.424 10.949s4.63 7.125 7.897 9.984c3.267 2.859 6.953 5.096 10.468 6.205s6.922 1.095 9.448-.737a.697.697 0 0 0 .077-.067c.066-.066.068-.075.058-.065l.01-.013 2.671-2.938a2.09 2.09 0 0 0-.138-2.938l-6.337-5.763a2.09 2.09 0 0 0-2.938.137l-2.867 3.153c-2.327-.674-4.317-1.816-6.231-3.557s-3.24-3.615-4.131-5.869l2.866-3.153a2.09 2.09 0 0 0-.137-2.938L6.316.536A2.07 2.07 0 0 0 4.818.001h-.001zm.061 1.293a.772.772 0 0 1 .559.208l6.337 5.763a.762.762 0 0 1 .052 1.097l-3.169 3.482a.664.664 0 0 0-.129.661c.962 2.624 2.513 4.777 4.648 6.719s4.423 3.283 7.126 3.992a.65.65 0 0 0 .647-.192l3.169-3.483a.76.76 0 0 1 1.096-.051l6.338 5.763a.76.76 0 0 1 .051 1.096l-2.649 2.912c-2.072 1.488-4.992 1.571-8.262.539-3.282-1.036-6.846-3.182-9.999-5.942s-5.898-6.131-7.585-9.573C1.438 10.88.833 7.435 1.751 4.399l2.588-2.844a.775.775 0 0 1 .538-.26z"/></symbol></defs></svg>