<svg aria-hidden="true" style="position:absolute;width:0;height:0" xmlns="http://www.w3.org/2000/svg" overflow="hidden"><defs><symbol id="icon-logo" viewBox="0 0 91 32"><path fill="var(--color1, #111518)" d="M13.608 4.836v12.942H9.947v-5.047H4.955v5.047H1.294V4.836h3.661v4.863h4.992V4.836h3.661zm13.398 7.95c0 .025-.018.314-.055.869h-7.285c.148.518.432.918.851 1.202.432.271.967.407 1.609.407.481 0 .894-.068 1.239-.203a3.617 3.617 0 0 0 1.072-.666l1.849 1.923c-.974 1.084-2.397 1.627-4.271 1.627-1.171 0-2.2-.222-3.088-.666s-1.577-1.06-2.071-1.849c-.481-.789-.721-1.683-.721-2.681 0-.986.235-1.867.703-2.644a5.064 5.064 0 0 1 1.951-1.836l.027-.013c.838-.444 1.781-.666 2.829-.666.998 0 1.904.21 2.718.629a4.599 4.599 0 0 1 1.911 1.772l.012.021c.481.777.721 1.701.721 2.773zm-5.343-2.7c-.542 0-.998.154-1.368.462-.357.308-.585.727-.684 1.257h4.105c-.098-.53-.333-.949-.703-1.257-.357-.308-.807-.462-1.35-.462zm7.702-6.027h3.513v13.719h-3.513V4.059zm6.535 0h3.513v13.719H35.9V4.059z"/><path fill="var(--color2, #ff6b09)" d="M4.614 29.724H2.765l-.353.853h-.944l1.775-3.982h.91l1.781 3.982h-.967l-.353-.853zm-.29-.699L3.693 27.5l-.631 1.525h1.263zm7.303.802v1.576h-.853v-.825H7.963v.825H7.11l.006-1.576h.159c.24-.007.408-.182.507-.523s.159-.828.181-1.462l.046-1.246h3.06v3.231h.557zm-2.851-1.9a8.467 8.467 0 0 1-.126 1.245l.007-.051c-.061.319-.154.554-.279.705h1.781v-2.48H8.794l-.017.58zm6.378 2.719c-.405 0-.774-.087-1.104-.262a2.047 2.047 0 0 1-.769-.725l-.005-.009a2.034 2.034 0 0 1-.279-1.033v-.032.002a1.973 1.973 0 0 1 1.053-1.792 2.3 2.3 0 0 1 1.109-.267c.345 0 .656.06.933.182.281.121.516.296.705.523l-.592.546a1.272 1.272 0 0 0-1.001-.466c-.247 0-.466.055-.66.165a1.162 1.162 0 0 0-.452.444l-.003.006c-.107.193-.159.413-.159.66s.053.466.159.66c.11.193.262.345.455.455.193.107.413.159.66.159.398 0 .732-.157 1.001-.472l.592.546a1.855 1.855 0 0 1-.694.524l-.012.005a2.35 2.35 0 0 1-.939.182zm4.81-1.672h-.637v1.604h-.917v-3.982h.916v1.61h.66l1.047-1.61h.973l-1.303 1.923 1.343 2.059h-1.047l-1.035-1.604zm3.538-2.378h.916v2.594l1.9-2.594h.865v3.982h-.91V27.99l-1.9 2.588h-.87v-3.982zm5.696 0h.916v2.594l1.9-2.594h.865v3.982h-.91V27.99l-1.9 2.588h-.87v-3.982zm1.838-.256c-.728 0-1.096-.29-1.104-.87h.631c.007.277.165.415.472.415.151 0 .267-.034.347-.102.08-.072.121-.176.125-.313h.631c-.004.284-.097.501-.279.649s-.457.222-.825.222z"/><path fill="var(--color1, #111518)" d="M40.226 29.724h-1.849l-.353.853h-.944l1.775-3.982h.91l1.781 3.982h-.967l-.353-.853zm-.29-.699l-.631-1.525-.631 1.525h1.263zm6.815-2.429v3.982h-.922v-1.633H44.02v1.633h-.922v-3.982h.922v1.57h1.809v-1.57h.922zm4.826.75h-1.894l.006 3.231h-.916v-3.982h2.81l-.006.751zm4.647-.75v3.982h-.91v-3.231h-1.365l-.028.831a8.564 8.564 0 0 1-.137 1.377c-.073.348-.193.619-.364.808-.167.186-.403.279-.705.279-.125 0-.277-.021-.455-.063l.057-.779a.562.562 0 0 0 .165.023c.22 0 .373-.129.461-.387.087-.262.142-.669.165-1.223l.057-1.616h3.061zm2.018 0h.916v2.594l1.9-2.594h.865v3.982h-.91V27.99l-1.901 2.588h-.87v-3.982zm5.696 0h.916v2.594l1.901-2.594h.865v3.982h-.91V27.99l-1.9 2.588h-.871v-3.982zm1.838-.256c-.729 0-1.097-.29-1.104-.87h.632c.007.277.164.415.471.415.152 0 .268-.034.348-.102a.415.415 0 0 0 .124-.313h.631c-.004.284-.097.501-.279.649s-.457.222-.825.222zm5.742 4.306h-.032c-.392 0-.761-.097-1.085-.268l.013.006a2.047 2.047 0 0 1-.769-.725l-.005-.009a2.034 2.034 0 0 1-.279-1.033v-.032.002c0-.395.092-.747.279-1.058.189-.315.448-.56.774-.734a2.263 2.263 0 0 1 1.076-.268h.035-.002c.345 0 .656.06.933.182.28.121.516.296.705.523l-.592.546a1.271 1.271 0 0 0-1.001-.466c-.247 0-.466.055-.66.165a1.162 1.162 0 0 0-.452.444l-.003.006c-.107.193-.159.413-.159.66s.053.466.159.66c.11.193.262.345.455.455.193.107.413.159.66.159.398 0 .732-.157 1.001-.472l.592.546a1.86 1.86 0 0 1-.693.524l-.012.005a2.35 2.35 0 0 1-.939.182zm4.811-1.672h-.637v1.604h-.916v-3.982h.916v1.61h.66l1.047-1.61h.973l-1.303 1.923 1.343 2.059h-1.047l-1.035-1.604zm3.537-2.378h.916v2.594l1.9-2.594h.865v3.982h-.91V27.99l-1.9 2.588h-.87v-3.982zm5.696 0h.916v2.594l1.9-2.594h.865v3.982h-.91V27.99l-1.9 2.588h-.87v-3.982zm1.838-.256c-.728 0-1.096-.29-1.104-.87h.631c.008.277.165.415.472.415.151 0 .267-.034.347-.102.08-.072.122-.176.125-.313h.631c-.004.284-.097.501-.279.649s-.457.222-.825.222zM74.263 14.949v2.829H63.872V4.836h10.15v2.829h-6.527v2.182h5.75v2.736h-5.75v2.367h6.767zM89.348 4.836v12.942h-3.014l-5.713-6.896v6.896h-3.587V4.836h3.014l5.713 6.896V4.836h3.587z"/><path fill="var(--color2, #ff6b09)" d="M58.695 11.062c-.19-.424-.45-.841-.832-1.323-.961-1.209-1.254-3.904-1.258-3.93a.326.326 0 0 0-.222-.274l-.002-.001a.329.329 0 0 0-.345.094c-1.147 1.283-.665 3.264-.404 4.056.071.217.149.472.206.73.423 2.091-.395 3.039-.587 3.229-.186.052-.313.026-.43-.1-.405-.443-.538-1.894-.348-3.785a3.818 3.818 0 0 0-.03-1.076l.003.023c-.399-2.324-1.861-3.815-2.233-4.338C51.189 2.854 51.085.336 51.082.314a.325.325 0 0 0-.509-.255l.001-.001c-1.708 1.161-1.562 3.957-1.323 5.518.055.362.163.73.348 1.196.661 1.664-.13 3.814-.137 3.833s-.014.036-.016.055c-.101.53-.27.846-.46.846a.219.219 0 0 1-.063-.01h.002c-.231-.048-.352-.294-.356-.507-.013-2.758-2.78-3.685-2.809-3.695s-.064-.016-.1-.016a.321.321 0 0 0-.245.112.316.316 0 0 0-.044.357l-.001-.002c.033.068.137.365.065 1.416a12.078 12.078 0 0 1-.535 2.859l.023-.085c-.658 2.147-.555 4.18-.548 4.277.506 5.505 8.423 6.47 13.122 3.368.515-.339.935-.727 1.244-1.153 1.734-2.392.714-5.641-.045-7.367zM46.651 16.32v.017a.322.322 0 0 1-.306.322h-.023a.325.325 0 0 1-.324-.303v-.001c-.029-.472-.023-.967.014-1.503a.33.33 0 0 1 .349-.3h-.001c.17.012.304.153.304.325l-.001.022v-.001c-.036.511-.043.976-.013 1.422zm.159-2.864a.323.323 0 0 1-.321.284h-.001c-.014 0-.026 0-.043-.004a.326.326 0 0 1-.284-.36v.001l.156-1.248a.329.329 0 0 1 .367-.28h-.002a.324.324 0 0 1 .283.362l-.156 1.244zm9.679-9.034a.324.324 0 0 1-.272-.37v.002c.021-.132.139-.804.458-1.142a.327.327 0 0 1 .461-.014.32.32 0 0 1 .014.457c-.135.143-.25.553-.289.798a.327.327 0 0 1-.374.27h.002zm-11.881 1.61c-.063-.24-.218-.637-.366-.767a.32.32 0 0 1-.03-.456.326.326 0 0 1 .46-.029c.351.305.535.963.567 1.092a.323.323 0 0 1-.232.393h-.002a.329.329 0 0 1-.397-.23l-.001-.002z"/></symbol><symbol id="icon-student-border" viewBox="0 0 31 32"><path fill="var(--color2, #ff6b09)" d="M7.953 23.273h12.362c.061-1.41-.04-3.749-.907-4.862l-.031-.04-1.894-.951c.041-.139.061-.266.069-.359a.666.666 0 0 0-.046-.313c-.312-.748-.974-1.141-1.337-1.309.111-.223.182-.463.217-.708a.607.607 0 0 0 .426-.439l.221-.898a.607.607 0 0 0-.206-.617c.623-1.416-.421-2.751-.478-2.821-1.131-1.222-2.559-.994-2.634-.98-2.061.432-2.857 2.011-2.408 3.864a.61.61 0 0 0-.14.554l.222.899a.605.605 0 0 0 .423.437c.063.449.253.854.532 1.181v.712c-2.958 1.515-1.084.548-3.454 1.748-.005.022-1.112 1.2-.948 4.689l.01.213zm11.932-.447H17.85v-.855l1.346-3.081c.674 1.119.699 3.255.689 3.935zm-2.777-5.803c-.079.902-.573.629-.878 1.324a1.025 1.025 0 0 1-.248-.92c.117-.622-.263-.807-.169-1.461l.014-.015v-.002c.008-.009.083-.098.105-.126.805.351 1.193 1.003 1.177 1.2zm-4.318-.709a2.294 2.294 0 0 0 2.573.034c.052.514.253.617.181.995-.013.07-.021.139-.025.207l-1.386 1.562-1.771-1.997.428-.223v-.579zm-.557-1.911v-.866-1.521c.216-.399.51-.688.875-.861.979.554 2.105 1.38 2.86 2.211-.001 1.059.003 1.062-.004 1.149v.006A1.87 1.87 0 0 1 14.1 16.28a1.873 1.873 0 0 1-1.867-1.876zm-.276 2.929l2.177 2.454 1.461-1.647c.033.096.08.187.134.275l-1.595 1.995-2.379-2.975.202-.101zm4.457-3.289v-.691l.166-.191c.009.35.047-.063-.166.882zm-2.616-4.627c.088.005 1.276-.181 2.215.833.037.046.801 1.031.494 2.108-.105-.479-.288-1.093-.578-1.387l-.316.315c.286.289.474 1.171.545 1.628-1.311-1.372-3.002-2.24-3.025-2.255-.085.053-.8.189-1.32 1.199l-.025.048v.742l-.066.001c-.33-1.594.302-2.861 2.076-3.233zm-2.123 3.693l.113.456v.479l-.187-.757c-.027-.113.056-.156.074-.178zm-.328 4.529l2.787 3.485 1.885-2.358c.205.184.304.21.739.433l-.147-.497c-.037-.126.11-.329.199-.422.199-.108.364-.261.488-.451l1.538.772-1.431 3.277v.948h-6.543v-.949L9.43 18.599l1.917-.962zm-2.276 1.253l1.346 3.08v.855H8.382c-.01-.68.015-2.815.689-3.934z"/><path fill="none" stroke="var(--color2, #ff6b09)" stroke-width=".615" d="M31.077 4.615V.307H.308v31.385h30.769v-4.308"/></symbol><symbol id="icon-mobile-border" viewBox="0 0 31 32"><path fill="var(--color2, #ff6b09)" d="M20.406 8.558H13.29a.841.841 0 0 0-.84.84v2.946l-5.287 2.219c-.06.025-.101.082-.105.146s.027.127.083.16l.674.403v4.3a.776.776 0 0 0-.603.756v.414c0 .095.077.172.172.172h1.207a.172.172 0 0 0 .172-.172v-.414a.777.777 0 0 0-.604-.756v-4.094l.533.319c-.016.123-.002-.214-.008 2.002 0 .729 1.866 1.119 3.765 1.141v3.356a.84.84 0 0 0 .84.838h7.116a.84.84 0 0 0 .839-.839V9.397a.846.846 0 0 0-.839-.84zM8.419 20.328v.242h-.863v-.242a.432.432 0 1 1 .863 0zm11.987 2.462H13.29a.494.494 0 0 1-.496-.494v-1.163h8.105v1.164c0 .27-.225.494-.494.494zm.494-2.002h-8.105v-1.847c.927-.011 3.767-.215 3.767-1.142-.001-1.392.002-1.957-.004-2.005l1.546-.926a.171.171 0 0 0-.022-.306l-5.286-2.219v-1.438h8.105v9.883zm-8.278-4.132c-.955 0-2.794.123-3.592.645.005-1.595-.055-1.491.141-1.627.496-.365 1.915-.62 3.451-.62.67 0 3.595.184 3.595.803v1.444c-.806-.526-2.636-.645-3.595-.645zm.173-7.258c0-.273.222-.495.495-.495h7.116c.273 0 .494.225.494.495v1.163h-8.105V9.398zm-.173 3.246l5.012 2.104-1.242.743c-.66-.655-2.844-.782-3.77-.782-.927 0-3.111.127-3.77.782l-1.242-.743 5.012-2.104zM9.03 17.799c0-.279 1.234-.799 3.592-.799 2.36 0 3.595.52 3.595.799s-1.235.799-3.595.799c-2.359 0-3.592-.52-3.592-.799z"/><path fill="var(--color2, #ff6b09)" d="M16.848 21.392a.57.57 0 1 0 0 1.139.57.57 0 0 0 0-1.139zm0 .795a.225.225 0 1 1 0-.45.225.225 0 0 1 0 .45zM17.504 9.56h-1.313v.344h1.313V9.56z"/><path fill="none" stroke="var(--color2, #ff6b09)" stroke-width=".615" d="M31.077 4.615V.307H.308v31.385h30.769v-4.308"/></symbol><symbol id="icon-insurance-border" viewBox="0 0 31 32"><path fill="var(--color2, #ff6b09)" d="M7.942 14.958c0 .165-.25.165-.25 0a6.343 6.343 0 0 1 12.686.001c0 .165-.249.165-.249 0 0-2.367-3.89-2.369-3.89 0 0 .165-.256.165-.256 0 0-2.361-3.896-2.361-3.896 0 0 .165-.256.165-.256 0 0-2.357-3.888-2.373-3.888 0zm3.911-.919c.067-1.363.281-2.584.593-3.517.249-.741.563-1.304.919-1.62a6.097 6.097 0 0 0-5.323 4.949c.921-1.328 3.047-1.222 3.811.189zm4.11-.062c-.069-1.31-.277-2.482-.576-3.376-.773-2.313-1.931-2.313-2.704 0-.299.894-.506 2.066-.576 3.376.831-1.412 3.026-1.412 3.857 0zm4.064-.127a6.094 6.094 0 0 0-5.323-4.949c.358.316.671.879.919 1.62.311.933.526 2.155.593 3.517.768-1.418 2.9-1.502 3.811-.189zM13.202 17.86v-1.288c-.232.154-.415.392-.415.683 0 .283.186.47.415.605zm.25.4c-.445-.204-.913-.442-.913-1.005 0-.581.442-.872.913-1.089v2.094zM14.867 19.803v1.303c.235-.156.419-.395.419-.686 0-.286-.189-.479-.419-.617zm-.248-.401c.446.207.918.452.918 1.018 0 .582-.445.873-.918 1.089v-2.107z"/><path fill="var(--color2, #ff6b09)" d="M14.867 15.106c1.024.237 2.077 1.003 2.077 2.149 0 .981-1.658.945-1.658 0 0-.292-.184-.532-.419-.686v1.833c.948.31 2.08.865 2.08 2.018 0 1.147-1.053 1.912-2.08 2.147-.005 1.092-1.662 1.09-1.665-.001-.584-.135-1.092-.407-1.458-.768-.385-.38-.612-.858-.612-1.378 0-.966 1.656-.966 1.656 0 0 .289.183.527.415.681V19.27c-.94-.304-2.078-.876-2.078-2.018 0-1.147 1.053-1.912 2.078-2.147.005-1.092 1.662-1.09 1.665.001zm-1.415.003v.199c-.975.193-2.08.818-2.08 1.944 0 1.083 1.213 1.568 2.08 1.836v2.42c-.469-.214-.913-.503-.913-1.087 0-.638-1.159-.638-1.159 0 0 .451.201.867.539 1.199.43.425.951.627 1.533.743v.201c0 .768 1.166.768 1.166 0v-.199c.978-.195 2.078-.819 2.078-1.944 0-1.093-1.21-1.563-2.078-1.837v-2.418c.47.214.918.503.918 1.09 0 .621 1.157.647 1.157 0 0-1.125-1.099-1.75-2.075-1.945v-.201c0-.768-1.166-.768-1.166 0z"/><path fill="none" stroke="var(--color2, #ff6b09)" stroke-width=".615" d="M31.077 4.615V.307H.308v31.385h30.769v-4.308"/></symbol><symbol id="icon-study" viewBox="0 0 31 32"><path fill="var(--color2, #ff6b09)" d="M30.151 4.961l-.001-.002a.32.32 0 0 0-.06-.09L25.284.063a.258.258 0 0 0-.041-.033l-.009-.006c-.012-.007-.024-.014-.036-.019L25.187 0a.277.277 0 0 0-.099-.02H3.912a.284.284 0 0 0-.284.284v29.311c0 .019.002.037.006.056l.007.023.009.03.014.026.013.023c.01.014.021.028.033.04l.003.003 2.165 2.164c.111.111.29.111.402 0l1.964-1.963 1.964 1.963c.055.056.128.083.201.083s.145-.027.201-.083l1.963-1.963 1.965 1.963a.284.284 0 0 0 .402 0l1.963-1.963 1.963 1.963a.283.283 0 0 0 .401 0l1.965-1.963 1.964 1.963c.055.056.128.083.201.083s.145-.027.201-.083l1.963-1.963 1.965 1.963a.283.283 0 0 0 .401 0l2.165-2.164.011-.014.024-.029c.007-.009.011-.02.016-.03.003-.007.007-.012.009-.019.006-.013.009-.026.012-.039l.005-.013a.286.286 0 0 0 .006-.058V5.071a.296.296 0 0 0-.023-.109zM25.367.949l3.836 3.835h-3.836V.949zm4.237 28.507l-1.88 1.88-1.965-1.963a.283.283 0 0 0-.401 0l-1.963 1.963-1.964-1.963a.284.284 0 0 0-.402 0l-1.965 1.963-1.963-1.962v-.001a.284.284 0 0 0-.402 0l-1.963 1.963-1.965-1.963a.284.284 0 0 0-.402 0l-1.963 1.963-1.964-1.963a.284.284 0 0 0-.402 0l-1.965 1.963-1.88-1.88V.547h20.603v4.522c0 .157.127.284.284.284h4.521v24.103z"/><path fill="var(--color2, #ff6b09)" d="M6.314 3.234h9.303a.284.284 0 1 0 0-.568H6.314a.284.284 0 1 0 0 .568zM6.314 4.991h14.919a.284.284 0 1 0 0-.568H6.314a.284.284 0 1 0 0 .568zM6.03 6.568v9.199c0 .157.127.284.284.284h21.172a.284.284 0 0 0 .284-.284V6.568a.284.284 0 0 0-.284-.284H6.314a.284.284 0 0 0-.284.284zm6.278.284h14.893v2.445H12.308V6.852zm0 3.013h14.893v2.444H12.308V9.865zm0 3.012h14.893v2.605H12.308v-2.605zm-5.71-6.025h5.142v2.445H6.598V6.852zm0 3.013h5.142v2.444H6.598V9.865zm0 3.012h5.142v2.605H6.598v-2.605zM27.486 17.329H6.314a.284.284 0 0 0-.284.284v9.198a.284.284 0 1 0 .568 0v-2.889h5.142v2.889a.284.284 0 1 0 .568 0v-2.889h14.893v2.889a.284.284 0 1 0 .568 0v-9.198a.282.282 0 0 0-.283-.284zM11.74 23.354H6.598v-2.443h5.142v2.443zm0-3.012H6.598v-2.444h5.142v2.444zm15.461 3.012H12.308v-2.443h14.893v2.443zm0-3.012H12.308v-2.444h14.893v2.444zM2.281-.021a.284.284 0 0 0-.284.284v29.311a.284.284 0 1 0 .568 0V.263a.284.284 0 0 0-.284-.284zM.718-.021a.284.284 0 0 0-.284.284v29.311a.284.284 0 1 0 .568 0V.263a.284.284 0 0 0-.284-.284z"/></symbol><symbol id="icon-mobile" viewBox="0 0 33 32"><path fill="var(--color2, #ff6b09)" d="M30.175-.128H14.429a1.861 1.861 0 0 0-1.859 1.859v6.518L.872 13.159a.38.38 0 0 0-.049.678l1.492.893v9.515A1.719 1.719 0 0 0 .98 25.919v.917c0 .21.171.381.381.381h2.671c.21 0 .381-.171.381-.381v-.917a1.72 1.72 0 0 0-1.336-1.673v-9.06l1.18.706c-.036.272-.005-.474-.017 4.43 0 1.612 4.129 2.476 8.33 2.525v7.425a1.858 1.858 0 0 0 1.858 1.856h15.746a1.859 1.859 0 0 0 1.857-1.857c0 .051-.002-1.573 0-28.54a1.87 1.87 0 0 0-1.856-1.859zM3.652 25.918v.536H1.743v-.536a.955.955 0 1 1 1.909 0zm26.523 5.446H14.429a1.096 1.096 0 0 1-1.096-1.094v-2.574h17.935v2.575c0 .597-.497 1.092-1.092 1.092zm1.092-4.429H13.332v-4.086c2.051-.023 8.335-.475 8.335-2.527-.002-3.081.005-4.33-.01-4.436l3.421-2.049a.382.382 0 0 0-.049-.678l-11.698-4.91V5.067h17.935v21.868zm-18.316-9.143c-2.113 0-6.182.273-7.949 1.427.011-3.53-.122-3.3.312-3.6 1.098-.809 4.238-1.373 7.637-1.373 1.482 0 7.954.408 7.954 1.778v3.195c-1.784-1.165-5.832-1.428-7.954-1.428zm.382-16.061c0-.604.491-1.095 1.095-1.095h15.746c.604 0 1.093.498 1.093 1.095v2.574H13.332V1.731zm-.382 7.184l11.09 4.655-2.748 1.644c-1.461-1.449-6.294-1.73-8.342-1.73-2.051 0-6.884.282-8.342 1.73L1.86 13.569l11.091-4.655zM5.002 20.321c0-.617 2.73-1.767 7.949-1.767 5.222 0 7.954 1.151 7.954 1.767s-2.732 1.768-7.954 1.768c-5.219 0-7.949-1.151-7.949-1.768z"/><path fill="var(--color2, #ff6b09)" d="M22.301 28.271a1.261 1.261 0 0 0 0 2.52 1.261 1.261 0 0 0 0-2.52zm0 1.759a.499.499 0 1 1 .002-.998.499.499 0 0 1-.002.998zM23.754 2.09h-2.906v.762h2.906V2.09z"/></symbol><symbol id="icon-open-book" viewBox="0 0 44 32"><path fill="var(--color2, #ff6b09)" d="M19.6 4.608H5.96v1.021H19.6V4.608zM19.6 8.416H8.003v1.021H19.6V8.416zM19.6 12.224H5.96v1.021H19.6v-1.021zM19.6 16.032H8.003v1.021H19.6v-1.021zM19.6 19.84H5.96v1.021H19.6V19.84zM19.6 23.648H8.003v1.021H19.6v-1.021zM38.323 4.608h-13.64v1.021h13.64V4.608zM36.281 8.416H24.684v1.021h11.597V8.416zM38.323 12.224h-13.64v1.021h13.64v-1.021zM36.281 16.032H24.684v1.021h11.597v-1.021zM38.323 19.84h-13.64v1.021h13.64V19.84zM36.281 23.648H24.684v1.021h11.597v-1.021z"/><path fill="var(--color2, #ff6b09)" d="M43.248 3.445h-1.872V.633a.511.511 0 0 0-.511-.511H25.6c-1.49 0-2.781.805-3.458 2.011A3.95 3.95 0 0 0 18.683.122H3.418a.511.511 0 0 0-.511.511v2.812H1.035a.511.511 0 0 0-.511.511v27.411c0 .282.229.511.511.511h42.213a.511.511 0 0 0 .511-.511V3.956a.511.511 0 0 0-.511-.511zM25.601 1.144h14.754v27.35H24.512a3.01 3.01 0 0 0-1.859.68V4.085a2.932 2.932 0 0 1 2.948-2.942zm-21.672 0h14.754a2.924 2.924 0 0 1 2.942 2.829c.001.022.003.091.006.112v25.087a2.987 2.987 0 0 0-1.852-.678H3.929V1.144zM1.546 4.467h1.362v24.538c0 .282.229.511.511.511H19.78c.778 0 1.531.511 1.771 1.341H1.546V4.467zm41.192 26.389H22.734a1.845 1.845 0 0 1 1.778-1.341h16.354a.511.511 0 0 0 .511-.511V4.466h1.362v26.39z"/></symbol><symbol id="icon-communication" viewBox="0 0 33 32"><path fill="var(--color2, #ff6b09)" d="M1.993 12.558v2.831a.5.5 0 0 0 .189.39 11.099 11.099 0 0 0 6.837 2.362c.74 0 1.482-.077 2.206-.224a12.01 12.01 0 0 0 4.89 1.032c1.707 0 3.351-.349 4.89-1.032 3.091.624 6.384-.046 9.042-2.138a.495.495 0 0 0 .189-.39v-2.831a1.2 1.2 0 0 0-.575-1.027l-3.867-2.176c.846-1.073 1.476-2.602 1.586-3.913.321-2.256-1.518-4.646-4.166-4.646a4.208 4.208 0 0 0-2.948 1.227c-.027.027-.058.049-.084.076-.024.025-.043.054-.067.08-.016.017-.029.036-.044.053C19.314.852 17.86 0 16.147 0c-.166 0-.33.011-.492.028-.01-.001-.018-.006-.028-.006-.092 0-.287.024-.391.054-.015.004-.026.015-.041.021a4.485 4.485 0 0 0-3.013 2.156A4.176 4.176 0 0 0 9.003.796c-3.908 0-5.642 4.612-2.557 8.581l-3.903 2.167a1.192 1.192 0 0 0-.553 1.014zm19.003 4.27c-.084.041-.167.085-.251.123l-.002.001a11.007 11.007 0 0 1-4.627 1.006 11.023 11.023 0 0 1-6.674-2.228v-2.87c0-.098.047-.184.102-.221l4.542-2.524c.565.48 1.287.832 2.035.832.721 0 1.499-.357 2.052-.843l4.487 2.52c.083.053.13.139.13.237v2.87c-.571.429-1.173.795-1.794 1.098zm8.158-4.446a.201.201 0 0 1 .092.176v2.587a9.986 9.986 0 0 1-6.737 1.98c.369-.23.771-.516 1.083-.76a.496.496 0 0 0 .19-.39v-3.114c0-.435-.218-.835-.61-1.087l-2.383-1.339.58-.321c.703.573 1.307.744 1.848.744.663 0 1.36-.325 1.878-.759l4.06 2.284zM23.216 1.788c1.38 0 2.593.902 3.021 2.142A3.703 3.703 0 0 1 24 2.788a.494.494 0 0 0-.788.084 3.684 3.684 0 0 1-2.548 1.76v-.003a4.786 4.786 0 0 0-.162-1.329c.563-.902 1.609-1.513 2.713-1.513zm-2.66 3.856a4.642 4.642 0 0 0 3.164-1.762 4.684 4.684 0 0 0 2.702 1.056c-.007 1.792-1.471 4.927-3.206 4.927-1.337 0-2.479-1.912-2.905-3.238a8.15 8.15 0 0 0 .245-.983zm.101 3.729l-.886.491-.895-.502c.332-.413.636-.893.896-1.413.25.526.55 1.01.884 1.425zM19.32 6.465c-.478 1.427-1.705 3.49-3.199 3.49-1.742 0-3.226-2.864-3.509-4.696.075-.019 2.43.126 4.049-2.001.822.688 1.932 1.143 3.011 1.188.013.647-.144 1.406-.352 2.018zM16.15.992c2.78 0 3.309 2.392 3.352 2.442a4.123 4.123 0 0 1-2.563-1.276.497.497 0 0 0-.789.087 4.073 4.073 0 0 1-3.58 2.022c.136-1.822 1.596-3.274 3.58-3.274zm-3.689 6.946c.257.515.563 1.006.913 1.438l-.875.487-.907-.51a7.76 7.76 0 0 0 .87-1.415zm-3.455-6.15c1.125 0 2.155.571 2.729 1.514-.029.1-.106.498-.117.548a3.675 3.675 0 0 1-1.821-1.062.496.496 0 0 0-.788.086 3.712 3.712 0 0 1-3.177 1.815c.158-1.627 1.518-2.9 3.174-2.9zm-3.13 3.89a4.711 4.711 0 0 0 3.643-1.796 4.629 4.629 0 0 0 2.055.961c.029.575.179 1.273.35 1.789-.274.84-.799 1.841-1.451 2.505l-.014.01c-.408.43-.988.719-1.444.719-1.594 0-2.841-2.508-3.14-4.188zm-2.891 6.88c0-.075.033-.139.067-.162l4.116-2.284c.247.206.304.229.353.265.484.322.928.482 1.534.482.645 0 1.232-.273 1.749-.694.029-.023.06-.045.088-.068l.587.33-2.446 1.361a1.269 1.269 0 0 0-.584 1.071v3.114c0 .152.07.296.19.39.317.249.727.539 1.083.761a10.024 10.024 0 0 1-6.737-1.98v-2.587z"/><path fill="var(--color2, #ff6b09)" d="M31.259 20.781a2.063 2.063 0 0 0-2.007-.11l-6.119 2.956a2.111 2.111 0 0 0-2.107-2.072l-3.509.001c-1.73-1.504-3.941-2.425-5.952-2.473-1.983-.047-3.763-.06-4.593-.064v-1.002H0v11.517h6.972v-1.379C8.884 29.252 13.911 32 16.297 32c.054 0 .107-.001.158-.004 4.196-.235 14.091-7.198 14.743-7.661a2.08 2.08 0 0 0 1.034-1.796c0-.719-.364-1.376-.973-1.758zM5.98 28.542H.992v-9.533H5.98v9.533zm24.707-5.058a.296.296 0 0 0-.044.028c-.102.073-10.281 7.271-14.244 7.494a2.354 2.354 0 0 1-.121.003c-2.092 0-7.194-2.753-9.307-4.001v-6.997c.827.004 2.597.017 4.569.064 1.837.044 3.876.921 5.456 2.346l.141.128 3.887-.001c.617 0 1.119.502 1.119 1.119s-.502 1.119-1.119 1.119h-7.142v.992h7.142c.684 0 1.288-.333 1.674-.839l6.984-3.373c.343-.167.725-.146 1.049.057s.508.537.508.918c0 .391-.212.753-.553.945zM16.612 12.158h-.992v.92h.992v-.92zM16.612 13.992h-.992v.92h.992v-.92zM16.612 15.826h-.992v.92h.992v-.92z"/></symbol><symbol id="icon-student" viewBox="0 0 27 32"><path fill="var(--color2, #ff6b09)" d="M-.103 31.759h26.785c.133-3.055-.086-8.122-1.964-10.535l-.068-.087-4.104-2.06c.089-.301.133-.576.151-.778a1.43 1.43 0 0 0-.1-.678c-.677-1.62-2.11-2.472-2.898-2.836.24-.484.395-1.003.47-1.534.446-.126.805-.479.923-.951l.479-1.946a1.314 1.314 0 0 0-.151-1.002 1.292 1.292 0 0 0-.294-.334c1.351-3.068-.911-5.96-1.035-6.113C15.641.256 12.547.752 12.383.781c-4.466.935-6.19 4.358-5.217 8.372a1.317 1.317 0 0 0-.302 1.2l.481 1.948c.117.468.473.82.916.948a5.014 5.014 0 0 0 1.152 2.559v1.543c-6.409 3.282-2.348 1.188-7.484 3.786-.01.048-2.41 2.599-2.053 10.159l.022.462zm25.854-.97h-4.408v-1.852l2.916-6.675c1.461 2.424 1.515 7.053 1.493 8.526zm-6.016-12.573c-.17 1.954-1.242 1.364-1.903 2.869-.52-.572-.677-1.258-.537-1.993.253-1.349-.57-1.749-.367-3.166l.031-.032v-.005c.018-.02.18-.213.227-.274 1.744.76 2.584 2.174 2.55 2.6zm-9.356-1.536a4.963 4.963 0 0 0 5.574.074c.112 1.114.547 1.337.393 2.157a3.536 3.536 0 0 0-.054.45l-3.002 3.384-3.838-4.327.926-.484V16.68zm-1.207-4.14v-1.876-3.296c.467-.864 1.104-1.491 1.896-1.866 2.12 1.2 4.56 2.99 6.197 4.791-.002 2.294.006 2.301-.009 2.489l-.001.012c-.128 2.083-1.841 3.811-4.038 3.811-2.136 0-3.909-1.677-4.037-3.831a2.578 2.578 0 0 1-.008-.233zm-.598 6.346l4.716 5.317 3.166-3.569c.072.208.174.405.29.595l-3.456 4.322-5.154-6.446.438-.22zm9.656-7.127v-1.498l.36-.413c.02.758.102-.137-.36 1.911zM12.562 1.734c.192.012 2.765-.391 4.799 1.804.08.1 1.736 2.234 1.071 4.567-.228-1.038-.625-2.369-1.252-3.004l-.686.683c.619.627 1.026 2.537 1.181 3.527-2.84-2.972-6.504-4.853-6.555-4.885-.184.114-1.734.409-2.86 2.598l-.054.105v1.607l-.142.002c-.716-3.454.655-6.198 4.497-7.004zm-4.6 8.002l.244.987v1.038l-.405-1.639c-.059-.244.122-.337.161-.386zm-.71 9.814l6.038 7.551 4.085-5.109c.444.398.658.454 1.6.939l-.318-1.078c-.081-.274.239-.713.431-.914.43-.233.789-.566 1.057-.977l3.333 1.674-3.101 7.1v2.055H6.201v-2.055l-3.103-7.099 4.153-2.085zM2.32 22.265l2.916 6.673v1.852H.828c-.022-1.473.033-6.099 1.492-8.524z"/></symbol><symbol id="icon-audio-book" viewBox="0 0 39 32"><path fill="var(--color2, #ff6b09)" d="M3.048 29.453h12.23a3.738 3.738 0 0 0 3.38 2.116h.772c1.465 0 2.761-.83 3.381-2.116h12.237a2.289 2.289 0 0 0 2.286-2.286V5.262a2.289 2.289 0 0 0-2.286-2.286h-1.234V1.955c0-.84-.684-1.524-1.524-1.524H5.799c-.84 0-1.524.683-1.524 1.524v1.021H3.048A2.289 2.289 0 0 0 .762 5.262v21.905a2.289 2.289 0 0 0 2.286 2.286zm29.24-4.701H19.81V7.047c2.884.377 5.121 2.845 5.121 5.831v.687l-.181-.04a.759.759 0 0 0-.908.58l-1.213 5.519c-.09.41.17.816.58.907l2.621.578a1.946 1.946 0 0 0 2.319-1.492l.702-3.192a1.954 1.954 0 0 0-1.484-2.324l-.912-.201v-1.023c0-3.827-2.917-6.986-6.644-7.37V1.956h12.48l-.001 22.796zm-7.122-9.575l1.871.412a.422.422 0 0 1 .325.508l-.702 3.191a.45.45 0 0 1-.507.331l-1.874-.413.886-4.03zM5.798 1.956h12.487v3.55c-3.731.381-6.652 3.541-6.652 7.371v1.022l-.914.202a1.935 1.935 0 0 0-1.222.854c-.28.439-.373.961-.26 1.468l.7 3.188a1.96 1.96 0 0 0 2.325 1.495l2.61-.577a.762.762 0 0 0 .58-.907l-1.213-5.519c-.043-.198-.164-.37-.334-.478s-.378-.144-.574-.102l-.174.038v-.686c0-2.988 2.24-5.458 5.128-5.832v17.706H5.798V1.953zm7.118 13.221l.887 4.029-1.863.411a.433.433 0 0 1-.512-.328l-.702-3.196a.42.42 0 0 1 .323-.506l1.867-.412zM2.286 5.262c0-.42.341-.762.762-.762h1.227v20.252c0 .84.684 1.524 1.524 1.524H32.29c.84 0 1.524-.683 1.524-1.524V4.5h1.234c.42 0 .762.342.762.762v21.905c0 .42-.342.762-.762.762H22.294a.76.76 0 0 0-.728.538 2.22 2.22 0 0 1-2.135 1.577h-.772a2.229 2.229 0 0 1-2.138-1.586.762.762 0 0 0-.725-.529H3.049a.763.763 0 0 1-.762-.762V5.262z"/></symbol><symbol id="icon-check" viewBox="0 0 40 32"><path fill="var(--color2, #ff6b09)" d="M34.457 1.514a29.389 29.389 0 0 0-4.265 2.379c-2.731 1.797-5.228 3.936-7.57 6.218-2.341 2.287-4.52 4.735-6.581 7.28-.515.636-2.823 3.47-2.823 3.47L3.622 6.481-.001 16.523 12.976 32c1.26-2.551 2.473-5.07 3.662-7.258.296-.556.605-1.08.901-1.612 0 0 1.523-2.677 1.924-3.352 1.601-2.697 3.332-5.325 5.239-7.821 1.908-2.491 3.983-4.87 6.335-6.961a28.328 28.328 0 0 1 3.751-2.872c1.332-.848 2.747-1.591 4.261-2.125-1.575.31-3.111.848-4.592 1.514z"/></symbol><symbol id="icon-fire" viewBox="0 0 23 32"><path fill="var(--color2, #ff6b09)" d="M21.908 16.593c-.284-.635-.675-1.261-1.247-1.983-1.442-1.813-1.882-5.857-1.887-5.896a.488.488 0 0 0-.337-.412.495.495 0 0 0-.518.141c-1.721 1.925-.997 4.897-.606 6.085.108.325.225.708.308 1.096.636 3.137-.592 4.558-.88 4.844-.279.078-.469.039-.645-.15-.606-.664-.807-2.841-.523-5.678a5.797 5.797 0 0 0-.039-1.581c-.598-3.486-2.791-5.722-3.349-6.507C10.65 4.283 10.494.506 10.489.472a.487.487 0 0 0-.763-.383C7.164 1.83 7.384 6.024 7.741 8.365c.083.543.244 1.096.523 1.794.992 2.497-.196 5.721-.205 5.75s-.02.053-.024.082c-.152.795-.406 1.27-.689 1.27a.327.327 0 0 1-.093-.015c-.347-.073-.528-.441-.533-.761-.02-4.136-4.17-5.527-4.214-5.542a.487.487 0 0 0-.586.678c.049.102.205.548.098 2.124a18.09 18.09 0 0 1-.768 4.16C.262 21.124.419 24.174.429 24.32c.759 8.257 12.635 9.704 19.683 5.052.772-.509 1.403-1.091 1.868-1.731 2.601-3.588 1.071-8.461-.068-11.05zM3.844 24.481a.484.484 0 0 1-.46.509h-.029a.487.487 0 0 1-.489-.456c-.044-.708-.034-1.45.02-2.255a.49.49 0 0 1 .978.068 15.622 15.622 0 0 0-.02 2.133zm.24-4.295a.485.485 0 0 1-.484.427c-.02 0-.039 0-.064-.005a.489.489 0 0 1-.425-.538l.235-1.871a.494.494 0 0 1 .548-.422c.269.034.46.276.425.543l-.235 1.867zM18.601 6.633a.484.484 0 0 1-.408-.553c.03-.197.207-1.205.686-1.713.185-.196.493-.206.691-.022s.207.49.022.685c-.203.215-.376.829-.433 1.197a.489.489 0 0 1-.558.405zM.778 9.048C.684 8.687.452 8.093.229 7.899c-.203-.177-.223-.483-.045-.684s.486-.222.69-.045c.527.458.802 1.445.852 1.638a.49.49 0 0 1-.947.241z"/></symbol><symbol id="icon-arrow-left" viewBox="0 0 54 32"><path fill="var(--color2, #ff6b09)" d="M52 14a2 2 0 1 1 0 4v-4zM.586 17.414a2 2 0 0 1 0-2.828L13.314 1.858a2 2 0 1 1 2.828 2.828L4.828 16l11.314 11.314a2 2 0 1 1-2.828 2.828L.586 17.414zM52 18H2v-4h50v4z"/></symbol><symbol id="icon-arrow-right" viewBox="0 0 54 32"><path fill="var(--color2, #ff6b09)" d="M2 14a2 2 0 1 0 0 4v-4zm51.414 3.414a2 2 0 0 0 0-2.828L40.686 1.858a2 2 0 1 0-2.828 2.828L49.172 16 37.858 27.314a2 2 0 1 0 2.828 2.828l12.728-12.728zM2 18h50v-4H2v4z"/></symbol><symbol id="icon-vk" viewBox="0 0 53 32"><path fill="var(--color3, #436eab)" d="M45.901 20.1c1.769 1.727 3.636 3.352 5.223 5.254.701.845 1.364 1.717 1.872 2.698.719 1.394.068 2.928-1.182 3.011l-7.77-.004c-2.004.166-3.603-.64-4.947-2.011-1.076-1.096-2.072-2.262-3.106-3.395-.424-.463-.868-.898-1.398-1.243-1.061-.689-1.981-.478-2.587.628-.617 1.125-.758 2.371-.818 3.625-.083 1.829-.636 2.311-2.474 2.394-3.928.185-7.655-.409-11.118-2.39-3.053-1.747-5.42-4.213-7.481-7.004C6.103 16.227 3.031 10.254.27 4.114-.352 2.731.103 1.988 1.629 1.962c2.535-.049 5.069-.046 7.607-.004 1.03.015 1.712.606 2.11 1.579 1.371 3.372 3.049 6.58 5.156 9.554.561.792 1.133 1.583 1.947 2.141.901.617 1.587.412 2.011-.591.269-.636.387-1.322.447-2.004.201-2.345.227-4.686-.125-7.023-.216-1.458-1.038-2.403-2.493-2.679-.743-.141-.632-.417-.273-.841.625-.731 1.212-1.186 2.383-1.186h8.781c1.382.273 1.689.894 1.879 2.285l.007 9.754c-.015.538.269 2.136 1.239 2.493.776.254 1.288-.367 1.754-.86 2.102-2.231 3.603-4.868 4.943-7.599.595-1.201 1.106-2.448 1.602-3.694.367-.924.944-1.379 1.985-1.359l8.451.008c.251 0 .504.004.747.045 1.424.243 1.814.855 1.375 2.246-.693 2.182-2.041 4-3.36 5.827-1.409 1.95-2.917 3.834-4.314 5.795-1.284 1.792-1.182 2.695.413 4.251z"/></symbol><symbol id="icon-phone" viewBox="0 0 33 32"><path fill="var(--color2, #ff6b09)" d="M4.817.003a2.072 2.072 0 0 0-1.44.674L.693 3.627c.004-.009-.01-.007-.087.1a.627.627 0 0 0-.093.182c-1.092 3.48-.36 7.308 1.424 10.949s4.63 7.125 7.897 9.984c3.267 2.859 6.953 5.096 10.468 6.205s6.922 1.095 9.448-.737a.697.697 0 0 0 .077-.067c.066-.066.068-.075.058-.065l.01-.013 2.671-2.938a2.09 2.09 0 0 0-.138-2.938l-6.337-5.763a2.09 2.09 0 0 0-2.938.137l-2.867 3.153c-2.327-.674-4.317-1.816-6.231-3.557s-3.24-3.615-4.131-5.869l2.866-3.153a2.09 2.09 0 0 0-.137-2.938L6.316.536A2.07 2.07 0 0 0 4.818.001h-.001zm.061 1.293a.772.772 0 0 1 .559.208l6.337 5.763a.762.762 0 0 1 .052 1.097l-3.169 3.482a.664.664 0 0 0-.129.661c.962 2.624 2.513 4.777 4.648 6.719s4.423 3.283 7.126 3.992a.65.65 0 0 0 .647-.192l3.169-3.483a.76.76 0 0 1 1.096-.051l6.338 5.763a.76.76 0 0 1 .051 1.096l-2.649 2.912c-2.072 1.488-4.992 1.571-8.262.539-3.282-1.036-6.846-3.182-9.999-5.942s-5.898-6.131-7.585-9.573C1.438 10.88.833 7.435 1.751 4.399l2.588-2.844a.775.775 0 0 1 .538-.26z"/></symbol><symbol id="icon-menu" viewBox="0 0 48 32"><path stroke-width="4.571" d="M0 2.286h46.857M0 16h46.857M0 29.714h46.857"/></symbol><symbol id="icon-close" viewBox="0 0 32 32"><path fill="none" stroke="var(--color1, #fff)" stroke-width="3.765" d="M1.882 29.168L29.168 1.882M29.168 29.168L1.882 1.882"/></symbol></defs></svg>